<?xml version="1.0" encoding="UTF-8" standalone="no"?>
<svg
   xmlns:dc="http://purl.org/dc/elements/1.1/"
   xmlns:cc="http://creativecommons.org/ns#"
   xmlns:rdf="http://www.w3.org/1999/02/22-rdf-syntax-ns#"
   xmlns:svg="http://www.w3.org/2000/svg"
   xmlns="http://www.w3.org/2000/svg"
   viewBox="0 0 1600 1066.6667"
   height="1066.6667"
   width="1600"
   xml:space="preserve"
   id="svg2"
   version="1.1"><metadata
     id="metadata8"><rdf:RDF><cc:Work
         rdf:about=""><dc:format>image/svg+xml</dc:format><dc:type
           rdf:resource="http://purl.org/dc/dcmitype/StillImage" /></cc:Work></rdf:RDF></metadata><defs
     id="defs6" /><g
     transform="matrix(1.3333333,0,0,-1.3333333,0,1066.6667)"
     id="g10"><g
       transform="scale(0.1)"
       id="g12"><path
         id="path14"
         style="fill:#ffffff;fill-opacity:1;fill-rule:nonzero;stroke:none"
         d="M 0,0 H 12000 V 8000 H 0 Z" /><path
         id="path16"
         style="fill:#f1f2f2;fill-opacity:1;fill-rule:nonzero;stroke:none"
         d="m 5659.46,1258.79 c -321.49,-0.84 -642.98,-7.62 -963.9,-38.92 -121.01,-11.8 -239.47,-37.76 -360.75,-48.23 -242.25,-20.92 -480.17,-59.94 -723.28,-77.94 -195.77,-14.49 -392.36,-23.04 -587.57,-41.43 -183.01,-17.24 -385.62,-13.26 -567.22,15.22 -134.45,21.09 -269.51,32.96 -401.7,66.83 -147.87,37.88 -308.51,64.97 -462.58,64 -219.7,-1.39 -433.65,-1.56 -643.901,-68.45 C 874.754,1106.38 784.402,1067.78 728.355,1018.5 600.059,905.68 582.691,624.18 710.797,507.172 926.566,310.23 1387.08,232.961 1689.52,229.32 c 331.41,-4 653.37,17.571 985.27,30.262 308.41,11.789 616.05,28.559 924.96,27.969 630.94,-1.211 1261.95,0 1891.75,36.961 591.7,34.718 1184.9,22.797 1777.9,22.797 608.1,0 1212.09,-4.188 1815.8,-75.059 263.05,-30.879 531.03,-41.687 795.39,-63.32 236.81,-19.379 464.31,0.383 700.11,18.281 198,15.039 394.7,59.641 574.6,135.031 142.4,59.68 396.3,245.067 440,387.52 122.4,399.338 -1725.39,389.738 -2009.09,388.848 -317.38,-1.01 -637.27,-10.17 -954.4,0.45 -133.39,4.46 -264.83,27.32 -395.03,52.38 -129.67,24.95 -260.33,18.61 -391.84,29.09 -548.41,43.74 -1098.05,37.35 -1648.2,37.35 -179.03,0 -358.15,1.38 -537.28,0.91" /><path
         id="path18"
         style="fill:#f2d3b6;fill-opacity:1;fill-rule:nonzero;stroke:none"
         d="m 5897.99,5606.46 c -2.66,-1.76 -5.19,-3.72 -7.52,-5.93 -21.78,-20.62 -13.5,-49.41 -27.08,-72.34 -6.06,-10.23 -39.58,-22.04 -27.38,-37.51 4.55,-5.68 18.23,-26.1 33.23,-45.73 21.87,-28.62 18.52,-66.89 18.29,-100.36 -0.32,-45 -0.63,-90 -0.95,-134.99 -0.27,-39.15 -0.57,-78.51 -7.24,-117.09 -16.1,-93.09 -67.02,-166.27 -112.39,-245.49 -48.11,-84.01 -100.2,-171.14 -135.93,-261.26 -12.64,-31.86 -22.83,-65.97 -18.73,-100 10.27,-85.3 89.49,-95.8 147.8,-47.06 24.49,20.47 43.45,46.67 61.12,73.24 47.64,71.61 87.93,148.11 120.02,227.9 14.96,37.2 28.14,75.09 41.31,112.96 33.95,97.64 51.3,189.08 55.6,292.29 -2.07,48.44 -9.38,96.4 -15.59,144.42 -3.8,29.33 -25.29,93.43 1.68,115.01 4.43,3.55 9.65,6.12 13.55,10.23 4.41,4.63 6.74,10.81 8.8,16.87 7.51,22.19 13.43,45.55 15.6,68.97 3.83,41.86 -47.26,83.44 -74.17,108.78 -6.7,6.31 -13.85,12.62 -22.63,15.4 -14.27,4.52 -29.56,-1.15 -43.45,-6.74 -8.22,-3.3 -16.6,-6.71 -23.94,-11.57" /><path
         id="path20"
         style="fill:#d7e8f4;fill-opacity:1;fill-rule:nonzero;stroke:none"
         d="m 5956.63,4534.47 c 56.91,137.41 94.19,282.12 111.34,421.78 -57.54,19.69 -115.08,39.39 -172.62,59.09 -7.84,2.69 -16.5,5.37 -24.19,2.27 -6.31,-2.53 -10.53,-8.42 -14.36,-14.05 -49.65,-73.12 -92.82,-153.02 -156.92,-215.01 -45.2,-43.71 -91.97,-81.37 -135.7,-127.3 -71.48,-75.06 -146.06,-147.57 -215.95,-224.1 -62.72,-68.68 -127.19,-140.32 -155.48,-228.91 -60.42,-189.18 139.6,-357.53 312.52,-246.59 204.35,131.12 355.62,341.64 451.36,572.82" /><path
         id="path22"
         style="fill:#ad6f59;fill-opacity:1;fill-rule:nonzero;stroke:none"
         d="m 8769.24,3537.01 87.95,-36.52 76.31,33.93 15.42,-12.82 -14.62,-19.79 71.43,9.7 49.88,-31.51 5.42,-78.92 -44.95,-67.41 -77.75,3.47 -78.38,50.52 -122.47,44.71 31.76,104.64" /><path
         id="path24"
         style="fill:#305399;fill-opacity:1;fill-rule:nonzero;stroke:none"
         d="m 8833.76,3556.53 -422.49,384.07 -322.08,757.53 -263.09,-43.86 191.5,-589.32 246.84,-503.83 562.28,-202.15 7.04,197.56" /><path
         id="path26"
         style="fill:#7db5db;fill-opacity:1;fill-rule:nonzero;stroke:none"
         d="m 3997.33,5996.42 -144.69,-62.34 c -69.03,-29.74 -100.87,-109.81 -71.13,-178.84 l 240.54,-558.26 c 29.74,-69.03 109.8,-100.88 178.83,-71.14 l 144.69,62.35 -348.24,808.23" /><path
         id="path28"
         style="fill:#bcbec0;fill-opacity:1;fill-rule:nonzero;stroke:none"
         d="M 8014.64,7248.2 C 6665.13,7602.09 4968.28,6804.17 4968.28,6804.17 l -0.38,0.88 -1112.45,-479.32 632.02,-1466.84 1112.44,479.31 -0.38,0.88 c 0,0 1745.42,685.23 2415.11,1909.12" /><path
         id="path30"
         style="fill:#587bc9;fill-opacity:1;fill-rule:nonzero;stroke:none"
         d="m 4967.9,6805.05 c 0,0 -441.91,600.73 -1399.95,187.94 l -479.01,-206.39 93.48,-216.97 c 0,0 723.23,272.83 903.15,-144.75 l 882.33,380.17" /><path
         id="path32"
         style="fill:#587bc9;fill-opacity:1;fill-rule:nonzero;stroke:none"
         d="m 5599.91,5338.2 c 0,0 133.09,-733.79 -824.94,-1146.57 l -479.02,-206.4 -93.49,216.97 c 0,0 695.04,338.26 515.12,755.83 l 882.33,380.17" /><path
         id="path34"
         style="fill:#f7f7f7;fill-opacity:1;fill-rule:nonzero;stroke:none"
         d="m 6081.83,5833.22 c -271.2,-116.85 -585.77,8.27 -702.62,279.47 -116.84,271.19 8.28,585.76 279.47,702.61 271.2,116.85 585.77,-8.27 702.62,-279.47 116.84,-271.19 -8.28,-585.76 -279.47,-702.61" /><path
         id="path36"
         style="fill:#7db5db;fill-opacity:1;fill-rule:nonzero;stroke:none"
         d="m 6030.91,5951.39 c -205.93,-88.73 -444.8,6.28 -533.53,212.21 -88.73,205.94 6.28,444.81 212.22,533.53 205.93,88.73 444.8,-6.28 533.53,-212.21 88.73,-205.93 -6.28,-444.8 -212.22,-533.53" /><path
         id="path38"
         style="fill:#f7f7f7;fill-opacity:1;fill-rule:nonzero;stroke:none"
         d="m 5019.06,5087.93 -632.01,1466.85 162.53,70.03 632.02,-1466.85 -162.54,-70.03" /><path
         id="path40"
         style="fill:#d7e8f4;fill-opacity:1;fill-rule:nonzero;stroke:none"
         d="m 4022.05,5196.98 -120.27,279.13 -120.27,279.13 c 0,0 -687.64,43.22 -967.25,-747.71 766.89,-340.01 1207.79,189.45 1207.79,189.45" /><path
         id="path42"
         style="fill:#305399;fill-opacity:1;fill-rule:nonzero;stroke:none"
         d="m 3982.26,5289.31 -80.48,186.8 -80.49,186.8 c 0,0 -460.17,28.92 -647.3,-500.38 513.22,-227.54 808.27,126.78 808.27,126.78" /><path
         id="path44"
         style="fill:#587bc9;fill-opacity:1;fill-rule:nonzero;stroke:none"
         d="m 6917.18,6077.84 c 417.92,303.8 838.25,696.66 1097.46,1170.36 -522.32,136.98 -1096.56,101.31 -1604.41,6.23 l 506.95,-1176.59" /><path
         id="path46"
         style="fill:#b8b7b5;fill-opacity:1;fill-rule:nonzero;stroke:none"
         d="m 5599.92,5338.2 -0.38,0.88 c 0,0 324.03,127.29 746.34,369.91 C 5017.6,5491.24 4280.75,5853.35 3955.47,6093.6 l 532,-1234.71 1112.45,479.31" /><path
         id="path48"
         style="fill:#dbdad8;fill-opacity:1;fill-rule:nonzero;stroke:none"
         d="m 4738.82,5738.33 280.24,-650.4 162.54,70.03 -230.6,535.21 c -74.57,13.09 -145.31,28.27 -212.18,45.16" /><path
         id="path50"
         style="fill:#6e8cd0;fill-opacity:1;fill-rule:nonzero;stroke:none"
         d="m 6585.38,7029.82 -67.14,155.84 c 0,0 399.48,84.11 816.9,84.11 195.95,0 395.76,-18.52 560.22,-72.96 0,0 -50.93,2.7 -137.03,2.7 -234.88,0 -731.81,-20.06 -1172.95,-169.69" /><path
         id="path52"
         style="fill:#6694ad;fill-opacity:1;fill-rule:nonzero;stroke:none"
         d="m 6174.26,6055.1 c -206.3,-4.1 -518.97,11.58 -705.5,208.34 5.12,-33.62 14.54,-67.14 28.62,-99.84 88.73,-205.93 327.6,-300.94 533.54,-212.21 56.72,24.44 104.97,60.31 143.34,103.71" /><path
         id="path54"
         style="fill:#6694ad;fill-opacity:1;fill-rule:nonzero;stroke:none"
         d="m 4022.05,5196.98 c 29.74,-69.03 109.8,-100.88 178.83,-71.14 l 144.69,62.35 v 0.01 c -0.17,0.08 -313.68,153.22 -574.91,614.72 0.72,-15.99 4.14,-32.11 10.85,-47.68 l 240.54,-558.26" /><path
         id="path56"
         style="fill:#4a6eaf;fill-opacity:1;fill-rule:nonzero;stroke:none"
         d="m 4774.97,4191.63 c 33.04,14.23 64.65,28.88 95.15,43.84 -229.56,-30.82 -446.91,-25.24 -621.22,-8.63 -28.82,-16.06 -46.44,-24.64 -46.44,-24.64 l 93.49,-216.97 479.02,206.4" /><path
         id="path58"
         style="fill:#3b455a;fill-opacity:1;fill-rule:nonzero;stroke:none"
         d="m 7843.09,684.488 -1.12,-73.738 187.65,-97.418 95.98,93.109 -93.1,95.981 -12.2,0.187 -3.36,-20.757 -173.85,2.636" /><path
         id="path60"
         style="fill:#3b455a;fill-opacity:1;fill-rule:nonzero;stroke:none"
         d="m 7377.72,712.391 -13.05,0.199 -95.98,-93.11 93.1,-95.98 190.53,91.672 1.13,73.73 -173.86,2.649 -1.87,20.84" /><path
         id="path62"
         style="fill:#305399;fill-opacity:1;fill-rule:nonzero;stroke:none"
         d="m 7422.7,3489.95 c 26.8,125.57 48.03,241.51 50.77,304.52 8.25,189.52 41.64,815.35 41.64,815.35 l 119.37,237.75 21.36,-0.53 c -1.53,0.2 -3.06,0.41 -4.59,0.62 5.02,-0.68 -1.72,46.32 -3.45,50.49 -100.57,4.96 -231.1,-49.82 -295.77,-127.93 -47.85,-57.79 -76.85,-128.9 -105.13,-198.76 -79.61,-196.7 -117.14,-379.5 -158.52,-586.98 -26.39,-132.3 -50.91,-264.01 -70.63,-395.44 -21.85,-145.57 -37.9,-290.79 -44.11,-435.32 -0.68,-15.97 -4.53,-60.62 -7.12,-113.99 -5.42,-111.8 -5.32,-261.45 40.91,-267.74 8.65,-1.18 17.07,2.59 24.76,6.25 60.02,28.52 107.54,66.24 160.58,99.01 l 11.71,583.42 218.22,29.28" /><path
         id="path64"
         style="fill:#305399;fill-opacity:1;fill-rule:nonzero;stroke:none"
         d="m 8477.92,2874.09 c -9.96,124.34 -20.36,248.66 -33.5,372.7 -26.2,247.41 -63.23,494.4 -128.59,734.51 -24.96,91.73 -54,182.25 -83.03,272.74 -35.35,110.18 -70.69,220.37 -106.04,330.55 -43.93,136.95 -120.11,234.11 -255.35,283.84 -24.15,8.88 -49.61,15.84 -75.88,21.05 -0.68,-2.81 -1.31,-5.65 -1.72,-8.65 -1.77,-13.07 -5.67,-27.52 -13.96,-36.89 l 89.23,-2.22 c 0,0 238.13,-898.6 245.04,-1052.95 2.62,-58.67 12.37,-186.82 23.33,-321.83 l 136.4,-22.56 -1.98,-515.73 c 7.61,-2.35 15.2,-4.63 22.72,-6.79 43.2,-12.37 78,-45.05 113.65,-70.82 52.66,-38.05 75.78,-53.15 69.68,23.05" /><path
         id="path66"
         style="fill:#5d6c7e;fill-opacity:1;fill-rule:nonzero;stroke:none"
         d="m 8137.45,3466.94 c 17.34,-213.66 37.73,-444.51 37.73,-444.51 0,0 -110.57,-0.98 -270.66,-10.67 11.84,0.1 23.67,0.24 35.48,0.16 111.24,-0.69 225.86,-50.5 331.86,-83.27 l 1.99,515.73 -136.4,22.56" /><path
         id="path68"
         style="fill:#5d6c7e;fill-opacity:1;fill-rule:nonzero;stroke:none"
         d="m 7383.19,2954.8 c -76.31,-2.88 -85.57,11.62 -85.57,11.62 0,0 73.06,279.9 125.08,523.53 l -218.22,-29.28 -11.71,-583.42 c 18.65,11.52 37.97,22.45 58.77,32.14 41.69,19.4 86.12,34 131.65,45.41" /><path
         id="path70"
         style="fill:#587bc9;fill-opacity:1;fill-rule:nonzero;stroke:none"
         d="m 8271.86,2928.65 c -106,32.77 -220.62,82.58 -331.86,83.27 -11.81,0.08 -23.64,-0.06 -35.48,-0.16 -9.91,-0.6 -20,-1.23 -30.27,-1.9 -74.62,-4.86 -158.48,-11.59 -246.05,-20.88 -4.31,-0.45 -8.59,-0.89 -12.91,-1.36 -112.18,-22.64 -184.93,-31.04 -232.1,-32.82 -45.53,-11.41 -89.96,-26.01 -131.65,-45.41 -20.8,-9.69 -40.12,-20.62 -58.77,-32.14 l -2.44,-121.48 181.75,-2066.899 174.79,-2.66 -0.32,-21.02 1,-0.011 213.26,1381.28 0.92,7.78 84.09,-1393.599 1,-0.02 0.32,21.02 175.64,-2.68 246.37,1546.689 2.71,703" /><path
         id="path72"
         style="fill:#ffffff;fill-opacity:1;fill-rule:nonzero;stroke:none"
         d="m 8137.45,3466.94 c -10.96,135 -20.71,263.15 -23.33,321.83 -6.91,154.35 -245.04,1052.95 -245.04,1052.95 l -89.23,2.22 c -0.99,-1.13 -2.02,-2.22 -3.15,-3.18 -2.79,-2.39 -6,-4.26 -9.69,-5.43 -7.32,-2.33 -15.22,-1.32 -22.83,-0.29 -29.44,4 -58.89,8 -88.33,12 l -21.37,0.53 -119.37,-237.75 c 0,0 -33.39,-625.83 -41.64,-815.35 -2.74,-63.01 -23.97,-178.95 -50.77,-304.52 -52.02,-243.64 -125.08,-523.53 -125.08,-523.53 0,0 9.26,-14.5 85.57,-11.63 47.17,1.79 119.92,10.19 232.1,32.83 4.32,0.47 8.6,0.91 12.9,1.36 87.58,9.29 171.44,16.02 246.06,20.88 10.27,0.66 20.36,1.3 30.27,1.9 160.09,9.69 270.66,10.66 270.66,10.66 0,0 -20.39,230.86 -37.73,444.52" /><path
         id="path74"
         style="fill:#3b455a;fill-opacity:1;fill-rule:nonzero;stroke:none"
         d="m 7924.67,5437.44 c 26.15,-45.16 39.17,-97.4 42.15,-149.68 0.8,-13.9 1.95,-29.95 13.13,-38.03 11.95,-8.65 1.82,-28.06 10.66,-16.19 8.84,11.87 38.86,53.08 40.02,67.93 2.75,34.81 2.21,69.88 -1.58,104.6 -3.31,30.19 -9.82,61.7 -29.58,84.51 -11.73,13.52 -27.25,22.94 -42.54,32.07 -22.16,13.24 -45,26.59 -70.31,31.06 -43.63,7.72 -70.1,-8.47 -31.28,-38.87 27.81,-21.77 51.41,-46.45 69.33,-77.4" /><path
         id="path76"
         style="fill:#ad6f59;fill-opacity:1;fill-rule:nonzero;stroke:none"
         d="m 7662.46,4840.54 c 59.94,-4.97 119.88,-9.93 179.82,-14.9 8.39,52.69 12.99,106.16 13.76,159.75 52.01,9.72 113.1,27.61 130.16,83.36 5.37,17.56 5.3,36.58 5.18,55.2 -0.51,76.94 -1.01,153.89 -1.52,230.84 -0.17,26.61 -0.49,54.03 -9.79,78.62 -16.33,43.14 -56.64,68.48 -96.04,84.26 -100.57,40.27 -217.09,37.21 -308.56,-22.89 -24.35,-16 -47.25,-36.47 -61.02,-64.05 -21.23,-42.53 -17.77,-94.68 -13.71,-143.41 3.75,-44.97 7.5,-89.95 11.25,-134.93 4.31,-51.73 12.78,-111.24 52.69,-138.11 21.2,-14.26 48.36,-16.6 66.72,-35.17 32.36,-32.75 18.6,-91.88 31.06,-138.57" /><path
         id="path78"
         style="fill:#3b455a;fill-opacity:1;fill-rule:nonzero;stroke:none"
         d="m 7822.08,5044.23 c -26.91,-18.9 -56.83,-20.26 -87.24,-11.36 -12.92,3.78 -7.76,25.81 5.18,22.02 25.2,-7.38 48.88,-6.89 71.28,8.85 11.27,7.91 21.99,-11.65 10.78,-19.51 z m 187.23,110.62 c -1.05,14.25 -7.75,55.98 -28.49,29.45 -5.42,-6.93 -6.65,-16.66 -6.86,-25.81 -0.22,-9.16 0.32,-18.57 -2.4,-27.22 -6.23,-19.85 -27.62,-29.1 -46.8,-28.98 -7.62,0.04 -15.41,1.22 -22.2,5.04 -6.6,3.71 -11.87,9.67 -17.02,15.52 -12.5,14.21 -25.01,28.41 -37.5,42.62 -21.49,24.42 -63.29,13.25 -91.73,9.12 -32.78,-4.76 -65.49,-15.23 -92.03,-37.52 -2.67,-2.25 -5.28,-4.61 -7.9,-6.97 -6.39,-5.75 -12.82,-11.45 -20.28,-15.26 -25.19,-12.86 -56.78,-0.14 -74.88,23.13 -8.3,10.67 -16.09,24.43 -28.76,26.08 -9.92,1.29 -19.46,-6.04 -24.41,-15.52 -4.94,-9.48 -6.16,-20.73 -6.69,-31.66 -1.95,-39.77 4,-80.68 21.42,-115.73 37.79,-75.99 108.94,-84.52 180.3,-81.95 28.2,1.02 56.41,2.04 84.61,3.06 51.57,1.86 106.06,4.69 149.09,35.7 37.96,27.36 60.11,73.37 68.79,121.38 4.48,24.78 5.58,50.32 3.74,75.52" /><path
         id="path80"
         style="fill:#3b455a;fill-opacity:1;fill-rule:nonzero;stroke:none"
         d="m 8014.33,5571.88 c 4.73,18.71 8.15,37.76 10.23,56.96 -17.37,-6.44 -36.36,-8.33 -54.65,-5.43 -0.2,11.06 -0.39,22.13 -0.59,33.19 -0.2,9.2 -122.71,14.17 -132.67,14.88 -93.23,6.64 -178.49,13 -262,-38.83 -71.33,-44.28 -116.55,-109.66 -126.42,-194.17 -9.43,-80.74 17.96,-185.71 64.73,-252.06 -0.56,21.46 -13.4,71.93 -8.7,92.39 2.77,20.47 9.44,40.27 18.77,58.58 18.63,36.56 47.84,67.49 81.77,89.72 54.11,35.44 117.31,54.6 180.57,64.34 57.95,8.92 128.61,17.36 186.19,2.41 27.68,-7.18 32.36,-14.16 48.66,14.34 2.88,5.03 25.42,63.58 23.14,63.59 -9.68,0.03 -19.35,0.06 -29.03,0.09" /><path
         id="path82"
         style="fill:#ad6f59;fill-opacity:1;fill-rule:nonzero;stroke:none"
         d="m 6774.46,3530.19 1.03,-95.22 61.22,-56.81 -5.72,-19.22 -23.95,5.66 37.02,-61.85 -9.34,-58.27 -70.43,-36.03 -79.66,14.81 -27.4,72.84 15.61,91.94 -7.07,130.19 108.69,11.96" /><path
         id="path84"
         style="fill:#305399;fill-opacity:1;fill-rule:nonzero;stroke:none"
         d="m 6817.79,3478.56 186.89,539.51 354.78,139.5 71.12,679.26 -466.46,-407.9 -366.09,-425.16 35.37,-596.46 184.39,71.25" /><path
         id="path86"
         style="fill:#fee7de;fill-opacity:1;fill-rule:nonzero;stroke:none"
         d="m 9304.47,4984.16 c 2.02,-2.75 4.08,-5.61 5.2,-8.71 10.38,-28.94 -1.53,-50.25 0.52,-80.84 0.92,-13.64 31.66,-30.7 8.79,-47.79 -8.43,-6.31 -31.31,-18.86 -49.43,-32.13 -26.42,-19.36 -48.22,-59.88 -59.58,-95.23 -44.66,-138.92 -50.27,-286.15 -51.24,-431.95 -0.06,-8.31 0.01,-16.99 3.79,-24.39 6.77,-13.25 22.84,-18.22 37.18,-22.19 66.51,-18.44 131.31,-43.08 193.27,-73.49 55.28,-27.13 109.59,-59.95 147.77,-108.27 38.19,-48.32 57.86,-114.89 37.5,-173.01 -15.24,-43.53 -52.7,-78.6 -97.13,-90.95 -110.2,-30.64 -213.86,100.41 -288.06,164.46 -70.21,60.61 -136.17,126.13 -197.22,195.95 -7.53,8.63 -15.18,17.63 -18.72,28.52 -3.77,11.6 -2.51,24.17 -1.17,36.3 17.19,156.21 48.09,310.02 82.26,464 9.39,42.31 39.83,74.31 48.16,113.51 5.32,25.02 -8.5,48.48 -8.71,73.19 -0.21,24.46 5.75,56.61 14.57,79.4 17.4,44.93 65.44,57.93 106.3,73.42 10.17,3.86 17.03,6.49 27.15,5.23 16.45,-2.05 27.94,-13.33 39.73,-24.1 6.99,-6.38 13.49,-13.35 19.07,-20.93" /><path
         id="path88"
         style="fill:#3b455a;fill-opacity:1;fill-rule:nonzero;stroke:none"
         d="m 9163.7,3877.11 c -74.98,65.05 -139.45,142.78 -194.86,223.59 -13.36,19.48 -26.24,40.17 -30.29,63.45 -3.35,19.28 -0.4,39.04 2.55,58.39 17.15,112.65 34.31,225.29 51.46,337.93 2.45,16.07 7.09,34.97 22.33,40.63 9.19,3.41 19.4,0.65 28.81,-2.13 201.95,-59.65 96.19,-69.28 158.99,-217.34 58.66,-138.29 157.12,-110.01 252.82,-36.71 62.65,47.99 146.2,55.92 224.89,62.07 22.78,1.78 47.14,3.23 67,-8.09 20.28,-11.56 31.48,-33.96 40.76,-55.38 78.01,-180.21 100.35,-384.07 63.21,-576.89 -3.07,-15.97 -7.16,-32.98 -19.26,-43.84 -12.13,-10.9 -29.51,-13.13 -45.74,-14.7 -131.94,-12.75 -268.45,-14.07 -393.12,30.99 -85.78,31.02 -161.94,79.37 -229.55,138.03" /><path
         id="path90"
         style="fill:#edd3b8;fill-opacity:1;fill-rule:nonzero;stroke:none"
         d="m 10242.7,997.969 55.6,-225.399 -133.5,-32.851 -61.7,249.89 139.6,8.36" /><path
         id="path92"
         style="fill:#3b455a;fill-opacity:1;fill-rule:nonzero;stroke:none"
         d="m 10168.5,777.91 125.4,-11.5 43.5,-29.351 14.6,-90 -309.3,-97.52 c -35.7,32.59 -30.5,89.18 10.4,114.731 l 13.4,8.429 102,105.211" /><path
         id="path94"
         style="fill:#edd3b8;fill-opacity:1;fill-rule:nonzero;stroke:none"
         d="m 11130.3,2003.44 c 55.3,24.91 107.1,68.2 163.3,87.63 7.6,-44.56 16.6,-88.84 25,-133.26 -66.3,-40.01 -135.4,-73.47 -210,-95.13 7.3,46.66 18.1,93.66 21.7,140.76" /><path
         id="path96"
         style="fill:#3b455a;fill-opacity:1;fill-rule:nonzero;stroke:none"
         d="m 11322.3,1960.75 c -4.6,5.29 -5.1,5.41 -9.9,18.35 -11.8,32.06 -43.4,121.05 -15.2,152.27 4.6,5.08 7.4,0.83 12.1,-0.84 79.6,-28.11 138.7,-63.89 205.4,-118.65 28.6,-23.42 56.9,-53.59 62.6,-91.41 2.5,-16.58 -3,-30.22 -7.9,-44.12 -7.3,-20.49 -16.4,-38.68 -26.9,-56.8 -3.9,-6.62 -6.9,-13.86 -15.7,-14.19 -17.7,-0.65 -28.3,18.62 -33.4,34.84 -5.2,16.2 -8.6,36.21 -21.1,48.99 -5.6,5.74 -13.2,8.83 -19.6,11.64 -47,20.86 -94.1,18.47 -130.4,59.92" /><path
         id="path98"
         style="fill:#bcbec0;fill-opacity:1;fill-rule:nonzero;stroke:none"
         d="m 10132,2021.18 c 131.1,-184.95 302.7,-253.64 504.8,-294 231.3,-46.19 420.3,11.91 608.3,144.3 -3.5,66.97 -16.8,132.53 -18.3,195.58 -218.3,-58.33 -326.4,-61.72 -496.8,120.98 -246.5,264.06 -75.4,708.43 -170.8,1048.48 -11,39.09 -26,77.59 -49.8,110.42 -277.5,381.55 -672.48,66.1 -686.01,-311.16 -12.11,-337.59 113.15,-738.75 308.61,-1014.6" /><path
         id="path100"
         style="fill:#bcbec0;fill-opacity:1;fill-rule:nonzero;stroke:none"
         d="m 10418,3253.82 c -27.9,122.06 -70.1,236.18 -113.7,320.54 -190.5,-33.53 -398.26,-103.64 -575.58,-184.53 -173.31,-79.06 -277.55,-144.94 -233.15,-342.45 81.71,-363.43 11.53,-705.42 31.15,-1068.41 11.4,-210.94 114.93,-377.99 226.58,-549.92 127.77,-196.74 244.94,-400.36 350.8,-609.691 63,14.981 125.9,29.973 188.8,44.954 -2.7,294.257 -95.7,578.987 -156.9,866.827 -42.5,200.03 -69.3,408.6 -39.5,612.43 32.9,224.07 167.7,169.17 273.1,319.13 102.4,145.78 96.6,380.29 48.4,591.12" /><path
         id="path102"
         style="fill:#3b455a;fill-opacity:1;fill-rule:nonzero;stroke:none"
         d="m 10013.5,4650.55 c 23.6,-13.14 45.1,-30.03 66.4,-46.77 19.1,-15 38.1,-30 57.2,-45 66,-51.96 107.7,-137.41 143.9,-211.13 190.1,-387.95 321.2,-939.93 302.7,-1378.31 -311.5,-75.27 -689.01,-51.23 -1010.53,-56.1 -31.27,-0.48 -67.01,1.11 -86.93,25.21 -12.08,14.6 -15.37,34.35 -18.21,53.08 -41.06,270.27 -28.12,569.42 -15.06,844 5.51,115.87 16.41,231.57 35.55,346.02 20.26,121.15 43.94,252.24 119.14,352.99 80.47,107.81 254.72,181.5 384.32,126.6 7.4,-3.13 14.52,-6.7 21.52,-10.59" /><path
         id="path104"
         style="fill:#fee7de;fill-opacity:1;fill-rule:nonzero;stroke:none"
         d="m 9987.74,4588.52 c 0.12,37.62 0.23,75.24 0.35,112.87 7.11,4.83 13.81,9.99 19.91,15.33 118.8,104.08 271.1,589.03 -95.26,636.7 -332.61,43.29 -249.39,-392.56 -159.4,-565.88 15.4,-29.67 34.11,-57.06 59.08,-79.48 17.07,-15.34 19.81,-11.52 20.82,-32.14 0.99,-19.97 -15.21,-45.19 -16.51,-66.61 -1.39,-22.84 4.12,-47.07 19.8,-63.73 9.6,-10.21 22.38,-16.97 35.61,-21.59 21.03,-7.35 44.52,-9.6 65.53,-2.21 24.99,8.8 49.99,39.79 50.07,66.74" /><path
         id="path106"
         style="fill:#66574d;fill-opacity:1;fill-rule:nonzero;stroke:none"
         d="m 9653.32,4941.75 c 28.38,-55.34 64.16,-106.88 106.09,-152.81 -18.24,107.6 -21.6,217.72 -9.98,326.25 0.89,8.27 1.57,17.6 -3.82,23.95 -5.02,5.93 -13.59,7.13 -21.35,7.61 -138.62,8.6 -120.41,-108.52 -70.94,-205" /><path
         id="path108"
         style="fill:#736357;fill-opacity:1;fill-rule:nonzero;stroke:none"
         d="m 10030.6,4832.79 c 26.2,-27.01 72.1,-11.69 102.7,10.05 126,89.3 181.2,266.57 128.2,411.6 -44.4,121.35 -216.5,191.24 -224.8,31.27 -3,-56.72 42.1,-127.84 43.7,-190.02 2.3,-88.87 -25.6,-178.44 -49.8,-262.9" /><path
         id="path110"
         style="fill:#736357;fill-opacity:1;fill-rule:nonzero;stroke:none"
         d="m 9581.93,5420.77 c -14.36,-8.37 -28.95,-17.1 -44.35,-26 -31.91,-18.42 -55.8,-26.64 -93.79,-12.08 -10.87,4.17 -87.51,57.32 -73.38,72.93 -93.63,-103.45 13.64,-217.38 67.42,-301.38 36.26,-56.63 54.86,-141.52 121.63,-171.97 73.44,-33.51 110.87,28.66 167.77,62.63 50.18,29.95 106.22,50.56 157.71,78.26 85.43,45.96 211.26,123.01 163.06,238.47 -56.25,134.86 -203.57,148.2 -329.52,118.1 -53.81,-12.87 -94.22,-34.31 -136.55,-58.96" /><path
         id="path112"
         style="fill:#fee7de;fill-opacity:1;fill-rule:nonzero;stroke:none"
         d="m 11069.1,4665.12 c -3.4,-0.11 -6.9,-0.25 -10,-1.3 -29.2,-9.72 -38.6,-32.25 -63.9,-49.54 -11.3,-7.7 -43.7,5.92 -43,-22.62 0.2,-10.53 4.5,-36.27 5.3,-58.72 1.1,-32.74 -17.3,-74.91 -38.1,-105.69 -39.3,-58.26 -210,-170.58 -175,-254.03 82.3,-196.05 275.9,191.33 300.8,221.08 16.4,19.64 43.3,23.26 62.9,38.37 19.3,14.95 40.9,39.51 53.4,60.53 24.6,41.44 5.1,87.24 -8,128.94 -3.2,10.38 -5.4,17.4 -12.6,24.58 -11.8,11.67 -27.8,13.73 -43.5,16.34 -9.4,1.55 -18.9,2.36 -28.3,2.06" /><path
         id="path114"
         style="fill:#3b455a;fill-opacity:1;fill-rule:nonzero;stroke:none"
         d="m 10470.4,3754.27 c 183.7,118.24 363,252.19 515.7,405.29 -47.4,51.03 -107.6,137.33 -190,121.12 -124,-24.41 -189.1,-168.67 -338.8,-109.36 -131.5,52.07 -172.2,230.31 -298.7,293.49 -13,6.5 -27.7,11.71 -41.9,8.41 -10,-2.34 -18.6,-8.7 -26.3,-15.45 -225.03,-159.67 21.4,-534.57 89.7,-703.08 17.7,-43.66 43.2,-93.69 89.8,-100.22 30,-4.2 58.8,11.77 84.7,27.46 38.6,23.45 77.3,47.55 115.8,72.34" /><path
         id="path116"
         style="fill:#f2d3b6;fill-opacity:1;fill-rule:nonzero;stroke:none"
         d="m 5568.63,4615.45 c -26.41,-47.95 -66.6,-86.55 -100.29,-129.7 -32.77,-41.98 -46.34,-81.16 -57.98,-131.79 -8.4,-36.57 -23.78,-64.5 -68.81,-67.52 -84.94,-5.68 -55.73,61.97 -71.06,113.91 -17.52,59.37 -60.65,108.46 -89.33,162.42 -82.86,155.93 -34.11,448.29 165.88,496.55 218.67,52.76 301.73,-298.38 221.59,-443.87" /><path
         id="path118"
         style="fill:#3b455a;fill-opacity:1;fill-rule:nonzero;stroke:none"
         d="m 5238.96,4784.93 c -24.32,0.83 -51.13,0.9 -70.32,-14.05 -19.2,-14.94 -19.89,-50.6 3.55,-56.21 21.27,-5.08 50.8,15.3 62.72,-2.07 6.97,-10.15 -0.82,-23.66 -7.48,-34.43 -25.57,-41.32 -35.98,-90.67 -28.96,-137.24 -9.46,-7.54 -22.64,2 -29.78,11.13 -35.45,45.28 -61.92,97.06 -77.69,151.98 -8.72,-12.36 -20.91,-22.52 -34.89,-29.08 9.54,19.5 6.09,41.86 2.65,62.73 -12.63,76.69 -18.48,165.88 38.72,223.52 30.6,30.84 74.82,46.6 118.46,51.36 43.64,4.75 87.36,-0.45 130.6,-5.65 18.5,-2.22 41.07,-7.92 44.25,-25.43 -41.93,-13.29 -86.41,-41.95 -109.66,-78.97 -7.15,-11.37 -39.69,-117.67 -42.17,-117.59" /><path
         id="path120"
         style="fill:#3b455a;fill-opacity:1;fill-rule:nonzero;stroke:none"
         d="m 5338.47,4959.52 c -1.56,-0.97 -3.1,-1.94 -4.61,-2.92 -19.5,-12.67 -38.07,-28.47 -60.87,-33.03 -32.86,-6.58 -66.28,11.51 -98.78,2.91 -36.33,-9.62 -62.77,-50.23 -90.5,-73.38 -45.46,-37.95 -100.28,-64.25 -157.99,-77.22 -29.48,-6.63 -59.74,-9.79 -89.95,-9.25 -13.7,0.25 -32.13,-0.98 -45.16,3.59 -17.49,6.14 -16.27,14.2 3.19,18.88 61.05,14.66 85.98,97.01 85.61,152.86 -0.29,44.08 -11.99,91 7.75,130.42 15.08,30.11 43.69,44.1 71.51,59.89 30.69,17.42 61.98,9.78 95.87,16.73 35.35,7.25 65.58,32.41 101.41,36.73 37.84,4.57 73.88,-14.74 110.66,-24.77 30.38,-8.29 62.46,-10.28 93.64,-5.82 27.93,4 55.58,13.13 83.7,10.77 41.47,-3.48 77.71,-32.22 99.41,-67.73 30.7,-50.22 46.76,-133.45 30.02,-195.31 2.6,9.6 -27.55,47.33 -33.73,55.42 -13.04,17.08 -29.1,33.38 -50.63,37.59 -48.75,9.53 -108.87,-10.59 -150.55,-36.36" /><path
         id="path122"
         style="fill:#f2d3b6;fill-opacity:1;fill-rule:nonzero;stroke:none"
         d="m 3601.82,1065.39 c 10.9,-30.31 29.08,-56.37 43.49,-84.66 297.24,100.9 591.46,250.07 879.29,378.62 -33.81,73.22 -67.62,146.43 -101.42,219.65 -135.61,-114.42 -282.11,-215.91 -436.81,-302.77 -24.52,-13.77 -386.11,-206.52 -384.55,-210.84" /><path
         id="path124"
         style="fill:#3b455a;fill-opacity:1;fill-rule:nonzero;stroke:none"
         d="m 3705.41,994.191 c 10.65,-17.16 6.77,-31.32 0.43,-48.121 -3.68,-9.75 -10.99,-18.3 -12.23,-28.781 -1.24,-10.488 1.22,-19.309 4.27,-29.969 16.09,-56.129 67.89,-179.558 -48.76,-149.3 -105.94,27.48 -136.99,200.23 -151.5,301.39 -0.96,6.65 -2.6,13.42 0.32,19.74 2.93,6.32 8.43,11.99 14.6,16.64 34.37,25.9 76.79,59.5 111.85,18.52 14.96,-17.48 8.99,-41.45 24.95,-59.91 13.07,-15.12 45.42,-23.06 56.07,-40.209" /><path
         id="path126"
         style="fill:#3b455a;fill-opacity:1;fill-rule:nonzero;stroke:none"
         d="m 4635.35,2608.02 c -20.84,-71.43 -2.94,-132.34 10.33,-221.04 11.64,-77.78 16.41,-156.58 14.25,-235.2 -1.86,-67.44 -9.13,-135.98 -35.88,-197.92 -43.3,-100.28 -128.43,-151.66 -198.75,-228.79 -58.75,-64.45 -117.62,-121.81 -187.53,-176.46 -149.53,-116.9 -308.55,-220.68 -463.8,-329.64 44.31,-81.81 69.45,-108.69 113.76,-190.5 7.81,-14.41 270.91,40.73 288,44.16 57.78,11.61 114.43,28.88 168.88,51.44 104.47,43.28 207.04,103.92 305.88,158.11 227.84,124.91 422.8,309.59 558.74,531.12 88.22,143.76 151.45,301.16 214.25,457.7 31.04,77.36 70.4,155.64 92.05,236.16 14.17,52.67 48.98,124.28 33.11,178.28 -13.73,49.75 -47.39,81.89 -93.53,113.25 -123.44,83.91 -282.38,224.86 -442.09,187.02 -84.96,-20.13 -120,-71.59 -180.57,-124.84 -64.62,-56.81 -123.01,-110.31 -167.26,-185.63 -14.09,-23.99 -23.66,-46.07 -29.84,-67.22" /><path
         id="path128"
         style="fill:#f2d3b6;fill-opacity:1;fill-rule:nonzero;stroke:none"
         d="m 5989.5,661.352 c 26.6,-59.711 61.83,-4.364 91.36,-25.403 90.96,356.211 91.36,601.061 18.11,960.091 -76.73,-17.19 -152.7,-37.41 -229.25,-54.62 78.51,-166.08 122.24,-283.35 143.88,-487.13 3.43,-32.31 -27.88,-384.438 -24.1,-392.938" /><path
         id="path130"
         style="fill:#3b455a;fill-opacity:1;fill-rule:nonzero;stroke:none"
         d="m 6102.44,696.09 c 20.17,1.629 27.58,-9.289 37.37,-23.508 5.69,-8.262 7.47,-19.141 14.69,-26.32 7.22,-7.16 16.68,-9.563 26.86,-12.313 53.56,-14.5 185.01,-34.98 101.28,-115.519 -76.03,-73.129 -235.31,-17.711 -326.48,22.261 -5.99,2.618 -13.4,4.399 -17.21,10.27 -3.82,5.879 -6.11,12.508 -6.55,20.41 -2.45,43.949 -6.14,88.371 44.31,102.059 21.52,5.832 39.56,-12.309 62.99,-6.391 19.21,4.852 42.56,27.43 62.74,29.051" /><path
         id="path132"
         style="fill:#3b455a;fill-opacity:1;fill-rule:nonzero;stroke:none"
         d="m 5388.78,2147.37 c 100.52,-75.09 201.04,-150.18 301.57,-225.27 33.11,-24.73 66.91,-50.18 89.64,-84.7 20.66,-31.38 30.87,-68.3 40.41,-104.64 52.41,-199.8 93.36,-402.61 122.59,-607.1 7.17,-50.08 13.62,-100.26 19.38,-150.519 4.93,-43.11 -14.45,-96.911 19.69,-123.289 39.31,-30.391 166.69,-26.891 217.11,-35.039 22.72,272.727 45.43,545.467 68.15,818.197 4.05,48.65 8.07,98 -0.95,145.98 -8.23,43.8 -27.04,84.8 -45.68,125.29 -178.7,388.2 -391.41,744.47 -650.9,1085.33 -10.9,14.32 -22.28,28.97 -37.88,37.95 -21.72,12.49 -48.22,12.18 -73.27,11.52 -95.2,-2.52 -241.76,21.59 -328.44,-19.01 -111.45,-52.23 -198.25,-126.23 -271.77,-225.03 -49,-65.86 -17.86,-190.88 27.2,-254.24 29.44,-41.4 70.82,-72.49 111.51,-102.88 130.54,-97.52 261.09,-195.03 391.64,-292.55" /><path
         id="path134"
         style="fill:#d7e8f4;fill-opacity:1;fill-rule:nonzero;stroke:none"
         d="m 4982.52,4252.26 c -32.82,-23.12 -62.98,-49.18 -88.96,-77.26 -87.07,-94.15 -156.56,-204.72 -206.57,-322.68 -114.56,-270.24 -136.58,-566.95 -157.23,-857.77 -6.88,-96.79 -13.74,-193.59 -20.62,-290.38 -6.77,-95.22 -0.03,-116.39 100.81,-111.96 186.85,8.21 382.15,32.1 555.83,103.7 82.64,34.07 160.78,79.24 246.71,104.37 124.99,36.56 248.47,5.37 371.06,25.8 -24.07,98.18 -63.84,189.28 -78.27,291.4 -14.45,102.22 -17.52,205.75 -17.24,308.91 0.39,144.95 -5.75,289.8 -8.46,434.71 -2.11,112.63 -1.67,244.83 -70.91,340.44 -23.22,32.06 -55.78,61.36 -92.48,77.1 -26.95,11.57 -75.8,19.03 -91.7,47.3 -1.45,2.59 -1.55,5.69 -1.61,8.66 -0.73,35.91 10.52,68.46 -24.48,81.3 -19.49,7.15 -47.31,6.41 -67.89,7.67 -29.09,1.79 -102.39,8.83 -110.74,-32.01 -2.21,-10.82 -1.96,-22.22 -5.99,-32.5 -1.01,-2.55 -2.32,-5.07 -4.42,-6.85 -2.7,-2.28 -6.33,-3.03 -9.79,-3.74 -74.93,-15.43 -151.33,-49.93 -217.05,-96.21" /><path
         id="path136"
         style="fill:#f2d3b6;fill-opacity:1;fill-rule:nonzero;stroke:none"
         d="m 6530.64,5080.18 c -3.2,-0.04 -6.38,-0.32 -9.54,-0.92 -29.46,-5.61 -38.04,-34.31 -61.85,-46.27 -10.62,-5.34 -45.22,2.83 -43.31,-16.79 0.77,-7.24 1.26,-31.81 3.28,-56.43 2.96,-35.9 -20.52,-66.3 -38.8,-94.35 -24.56,-37.7 -49.12,-75.4 -73.68,-113.1 -21.38,-32.81 -42.88,-65.78 -69.32,-94.64 -63.82,-69.66 -146.2,-103.76 -227.16,-145.94 -85.86,-44.73 -176.75,-89.94 -255.48,-146.49 -27.85,-20 -54.84,-43.21 -69.77,-74.06 -37.41,-77.34 23.6,-128.96 99,-119.42 31.65,4.01 61.76,15.82 90.98,28.64 78.77,34.54 153.98,77.18 224.08,127.01 32.69,23.23 64.23,48.01 95.77,72.77 81.3,63.85 145.28,131.45 204.62,215.99 24.42,41.89 44.17,86.2 64.87,129.98 12.64,26.73 29.16,92.29 63.52,95.89 5.64,0.59 11.42,-0.07 16.93,1.29 6.21,1.52 11.51,5.46 16.51,9.45 18.31,14.62 35.9,31.08 50.37,49.62 25.83,33.16 5.28,95.75 -3.69,131.62 -2.23,8.93 -4.84,18.1 -10.72,25.17 -9.58,11.51 -25.51,15 -40.21,17.8 -8.71,1.65 -17.6,3.31 -26.4,3.18" /><path
         id="path138"
         style="fill:#d7e8f4;fill-opacity:1;fill-rule:nonzero;stroke:none"
         d="m 5978.53,4166.52 c 25.17,14.52 49.95,29.69 73.96,46.06 89.22,60.86 167.11,138.25 228.54,227.08 -26.91,62.76 -59.45,123.1 -97.08,180.08 -244.66,-106.06 -491.98,-158.84 -747.44,-226.88 -89.87,-23.94 -182.81,-49.42 -254.47,-108.71 -132.06,-109.27 -91.17,-332.69 81.26,-371.32 208.64,-46.74 454.54,112.08 630.7,207.07 28.31,15.26 56.66,30.55 84.53,46.62" /><path
         id="path140"
         style="fill:#d7e8f4;fill-opacity:1;fill-rule:nonzero;stroke:none"
         d="m 10227.9,4385.85 c -2.4,-1 -4.9,-2.16 -7.4,-2.92 -131.7,-39.41 -274.9,-66.39 -414.24,-88.26 -98.31,-15.36 -198.46,-30.31 -298.44,-32.83 -156.49,-3.93 -239.21,64.71 -273.39,206.21 -41.84,173.07 -5.6,357.43 9.39,531.17 2.83,32.58 6.23,312.16 35.67,318.4 -96.11,-20.33 -145.37,80.69 -242.61,67.24 -18.75,-2.57 -38.48,-6.13 -58.96,-9.94 -4.64,39.89 -21.17,79.05 -50.05,112.33 -82.47,99.45 -217.39,223.91 -169.47,359.74 23.08,19.42 46.3,38.37 68.41,57.66 79.28,69.32 144.8,153.24 195.6,245.32 16.98,30.82 35.63,58.42 54.42,82.66 53.66,69.36 108.27,111.76 128.52,126.33 -2.43,-23.7 1.96,-47.19 16.23,-67.28 30.91,-43.43 96.99,-57.92 144.33,-37.45 2.39,1.05 4.62,2.15 6.92,3.33 19.78,10.56 10.95,18.45 -3.49,24.12 -15.41,6.09 -33.09,12.7 -38.39,30.28 -13.78,45.98 109.46,57.26 131.92,60.51 221.11,32.01 380.12,-252.06 434.81,-309.62 0,0 -16.7,-102.52 20.69,-142.96 7.96,-8.66 13,-16.67 15.98,-24.08 -8.23,-12.9 -15.01,-28.41 -19.66,-46.94 l -0.06,-0.07 c -76.67,-22.04 4.48,-114.77 -44.1,-157.36 -18.66,-16.32 -43.86,-22.08 -63.47,-37.2 -3.68,-2.86 -7.32,-5.99 -9.02,-10.33 -2.88,-6.91 0.22,-15.14 5.51,-20.51 21.67,-22.05 54.29,-23.18 85.74,-16.23 6.53,-100.64 39.08,-203.23 123.51,-280.32 -8.7,-79.35 -30.72,-201.28 -123.41,-221.82 -13.41,-2.93 -27.2,-5.14 -39.24,-11.61 -60.12,-32.55 11.41,-111.98 51.06,-121.19 59.34,-13.78 126.19,1.35 190.09,10.6 v 0.01 c 14.3,2.07 21.9,-18.51 -12.7,-49.55 -91.68,-82.41 -191.4,-201.92 -161.34,-336.48 22.1,-99.09 101.14,-162.31 191.74,-192.24 38,-12.54 78,-16.47 118.9,-18.72" /><path
         id="path142"
         style="fill:#7db5db;fill-opacity:1;fill-rule:nonzero;stroke:none"
         d="m 8953.87,5502 c -85.67,103.31 -213.36,230.5 -163.6,371.62 -70.75,-59.4 -152.49,-120.58 -184.72,-208.62 -35.97,-98.25 -8.58,-216.21 84.07,-272.2 89.44,-54.06 212.33,-32.39 317.08,-12.68 -4.8,41.46 -22.8,87.31 -52.83,121.88" /><path
         id="path144"
         style="fill:#3b3f54;fill-opacity:1;fill-rule:nonzero;stroke:none"
         d="m 8649.1,5595.04 c -2.93,20.24 11.1,39.02 31.34,41.95 20.24,2.93 39.02,-11.1 41.95,-31.34 2.93,-20.24 -11.1,-39.02 -31.34,-41.95 -20.24,-2.93 -39.02,11.1 -41.95,31.34" /><path
         id="path146"
         style="fill:#3b455a;fill-opacity:1;fill-rule:nonzero;stroke:none"
         d="m 9220.59,6570.99 c -53.53,-81.37 -117.88,-154.86 -190.73,-218.14 27.55,-71.81 46.97,-120.22 46.97,-120.22 53.66,69.36 108.27,111.76 128.52,126.33 4.37,42.89 31,86.54 61.37,112.1 6.29,5.28 12.93,10.12 19.98,14.53 -18.74,24.47 -41.29,53.68 -66.11,85.4" /><path
         id="path148"
         style="fill:#d7e8f4;fill-opacity:1;fill-rule:nonzero;stroke:none"
         d="m 8972.14,6868.75 c -54.9,58.75 -99.04,97.51 -116.64,93.04 -21.32,-5.41 -4.5,-86.53 27.59,-192.81 32.96,29 62.93,61.89 89.05,99.77" /><path
         id="path150"
         style="fill:#7db5db;fill-opacity:1;fill-rule:nonzero;stroke:none"
         d="m 8972.14,6868.75 c -26.12,-37.88 -56.09,-70.77 -89.05,-99.77 13.01,-43.06 28.5,-90.22 45.01,-138.19 47.99,40.49 89.81,89.2 123.22,148.68 -27.62,32.4 -54.48,62.86 -79.18,89.28" /><path
         id="path152"
         style="fill:#587bc9;fill-opacity:1;fill-rule:nonzero;stroke:none"
         d="m 9051.32,6779.47 c -33.41,-59.48 -75.23,-108.19 -123.22,-148.68 15.72,-45.69 32.34,-92.08 48.55,-136.28 62.73,49.64 119.04,107.43 166.63,173.8 -30.28,37.52 -61.57,75.5 -91.96,111.16" /><path
         id="path154"
         style="fill:#305399;fill-opacity:1;fill-rule:nonzero;stroke:none"
         d="m 9143.28,6668.31 c -47.59,-66.37 -103.9,-124.16 -166.63,-173.8 19,-51.79 37.44,-100.57 53.21,-141.66 72.85,63.28 137.2,136.77 190.73,218.14 -24.06,30.73 -50.29,63.84 -77.31,97.32" /><path
         id="path156"
         style="fill:#587bc9;fill-opacity:1;fill-rule:nonzero;stroke:none"
         d="m 10586.9,5634.61 c -1.9,7.58 -7.4,14.76 -15,16.48 -8.8,1.97 -17.3,-3.39 -24.6,-8.5 -35.2,-24.46 -74.3,-66.37 -120.8,-48.28 -50.5,19.66 -74.6,84.61 -82.4,133.75 -14.4,91.14 -2.8,162.45 -52.1,241.67 -20.6,33.05 -74,83.6 -131,78.21 39.3,4.02 -0.2,194.33 -10.1,220.58 -38.9,102.66 -142.7,177.43 -236.07,226.26 -192.22,100.47 -441.19,107.68 -628.13,-9.19 -7.06,-4.41 -13.69,-9.25 -19.98,-14.53 -30.37,-25.56 -57,-69.21 -61.37,-112.1 -2.43,-23.7 1.96,-47.19 16.23,-67.28 30.91,-43.43 96.99,-57.92 144.33,-37.45 2.38,1.05 4.62,2.15 6.92,3.33 19.78,10.56 10.95,18.45 -3.49,24.12 -15.41,6.09 -33.09,12.7 -38.39,30.28 -13.77,45.97 109.46,57.26 131.92,60.51 168.2,24.35 300.46,-134.2 378.19,-236.81 26.28,-37.16 102.58,-168.27 35.91,-362.86 -22.19,-64.78 -65.66,-85.52 -88.49,-106.1 -4.28,-3.89 -8.5,-8.17 -10.39,-14.2 -3.2,-9.59 0.74,-21.23 7.2,-28.92 26.45,-31.59 65.25,-34.21 102.4,-25.46 l 2.38,0.63 c 8.09,-102.5 40.94,-206.55 121.53,-286.39 -9.6,-79.23 -33.77,-191.54 -121.68,-211.02 -13.4,-2.93 -26.66,-8.83 -38.7,-15.3 -60.12,-32.55 10.34,-104.6 49.99,-113.81 59.34,-13.78 126.19,1.35 190.09,10.61 3.2,0.46 6.3,1.25 9.4,2.19 -1.1,-10.21 -8,-22.43 -24.2,-36.97 -91.71,-82.42 -191.48,-210.79 -161.42,-345.35 22.11,-99.09 102.82,-164.52 193.32,-194.44 38.1,-12.55 78.6,-20.17 119.5,-22.42 89.8,-4.92 181.8,15.66 255.6,65.56 49.9,33.76 100.1,80.81 116.6,140.98 4.1,15.27 7.2,33.42 2.8,49.08 -5.4,19.11 -22.6,29.61 -34.9,5.75 -16.5,-32.1 -46.2,-50.08 -81.5,-57.31 -73.8,-14.98 -136.9,38.95 -113.6,116.82 5,17.1 14.4,32.56 24,47.57 34.3,53.72 83.4,100.75 111.5,157.86 25.7,52.2 39.9,112.65 32.9,170.05 -9.5,78.69 -55,171.1 -141.6,188.13 -1.4,0.28 -2.9,0.49 -4.3,0.71 16.9,56.01 19.2,117.3 11.8,175.14 64,-3.16 138,60.7 164.5,113.67 9.9,19.81 20.8,52.3 15.2,74.75" /><path
         id="path158"
         style="fill:#7db5db;fill-opacity:1;fill-rule:nonzero;stroke:none"
         d="m 9673.05,6157.44 c -40.75,2.18 -125,81.78 -116.32,121.64 21.4,98.3 113.31,238.28 104.88,296.51 -11.79,81.44 137.02,60.66 132.05,-99.97 -4.96,-160.63 -3.81,-305.98 -72.36,-316.04 -17.14,-2.52 -33.44,-2.93 -48.25,-2.14" /><path
         id="path160"
         style="fill:#3b3f54;fill-opacity:1;fill-rule:nonzero;stroke:none"
         d="m 9248.83,5883.5 c 4.72,-32.66 -17.92,-62.97 -50.58,-67.69 -32.66,-4.73 -62.96,17.91 -67.69,50.57 -4.73,32.66 17.91,62.97 50.57,67.69 32.66,4.73 62.97,-17.91 67.7,-50.57" /><path
         id="path162"
         style="fill:#305399;fill-opacity:1;fill-rule:nonzero;stroke:none"
         d="m 9721.3,6159.58 c 68.55,10.06 67.4,155.41 72.36,316.04 2.05,66.28 -22.09,108.69 -50.32,129.99 0.17,-1.92 33.69,-380.93 -107.39,-433.52 l 14.6,-8.04 c 8.24,-3.88 15.94,-6.26 22.5,-6.61 14.81,-0.79 31.11,-0.38 48.25,2.14" /><path
         id="path164"
         style="fill:#7db5db;fill-opacity:1;fill-rule:nonzero;stroke:none"
         d="m 11060.5,5528.83 208.4,-390.92 c 3.4,-6.44 9.8,-10.77 17.1,-11.6 l 441.3,-50.42 c 18.3,-2.09 26.2,-24.17 13.4,-37.36 l -308.6,-318.46 c -5.1,-5.24 -7.3,-12.63 -5.8,-19.77 l 88.1,-433.9 c 3.7,-17.98 -14.9,-32.33 -31.5,-24.29 l -399.1,194.11 c -6.6,3.19 -14.3,2.96 -20.7,-0.62 l -386.8,-217.75 c -16,-9.02 -35.5,4.19 -32.9,22.36 l 61.9,438.41 c 1.1,7.21 -1.5,14.46 -6.9,19.39 l -327.3,299.33 c -13.5,12.4 -6.9,34.91 11.2,38.1 l 437.5,76.85 c 7.2,1.26 13.3,5.97 16.3,12.6 l 184.6,402.74 c 7.6,16.69 31.2,17.39 39.8,1.2" /><path
         id="path166"
         style="fill:#b6daef;fill-opacity:1;fill-rule:nonzero;stroke:none"
         d="m 11043.3,5436.57 -164.9,-343.32 c -8.7,-18.01 -25.9,-30.37 -45.8,-32.79 l -379.2,-46.02 402.3,-6.64 c 25.5,-0.42 48.4,15.69 56.6,39.83 l 131,388.94" /><path
         id="path168"
         style="fill:#6e9fba;fill-opacity:1;fill-rule:nonzero;stroke:none"
         d="m 10650.5,4290.65 -7.1,-50.44 c -2.6,-18.17 16.9,-31.38 32.9,-22.36 l 386.8,217.75 c 6.4,3.58 14.1,3.81 20.7,0.62 l 399.1,-194.11 c 16.6,-8.04 35.2,6.31 31.5,24.29 l -88.1,433.9 c -1.5,7.14 0.7,14.53 5.8,19.77 l 308.6,318.46 c 12.8,13.19 4.9,35.27 -13.4,37.36 l -147.8,16.88 c -225.2,-432.92 -583,-668.04 -929,-802.12" /><path
         id="path170"
         style="fill:#c0deec;fill-opacity:1;fill-rule:nonzero;stroke:none"
         d="m 10644.9,4162.63 v 0 h 0.1 z" /><path
         id="path172"
         style="fill:#3b455a;fill-opacity:1;fill-rule:nonzero;stroke:none"
         d="M 8950.54,2446.01 H 6733.4 v 1390.06 c 0,49.77 40.35,90.13 90.12,90.13 h 2036.89 c 49.77,0 90.13,-40.36 90.13,-90.13 V 2446.01" /><path
         id="path174"
         style="fill:#d7e8f4;fill-opacity:1;fill-rule:nonzero;stroke:none"
         d="M 6821.78,2527.71 H 8862.74 V 3823.66 H 6821.78 Z" /><path
         id="path176"
         style="fill:#969999;fill-opacity:1;fill-rule:nonzero;stroke:none"
         d="m 8950.34,2254.74 -2217.17,6.65 c -53.96,0.15 -103.95,28.4 -131.91,74.55 l 2481.42,-7.39 -0.01,-0.01 c -28.22,-45.99 -78.37,-73.95 -132.33,-73.8" /><path
         id="path178"
         style="fill:#bcbec0;fill-opacity:1;fill-rule:nonzero;stroke:none"
         d="M 9053.18,2316.18 H 6630.75 c -18.07,0 -32.72,14.65 -32.72,32.73 v 68.01 c 0,18.08 14.65,32.73 32.72,32.73 h 2422.43 c 18.07,0 32.72,-14.65 32.72,-32.73 v -68.01 c 0,-18.08 -14.65,-32.73 -32.72,-32.73" /><path
         id="path180"
         style="fill:#a1a3a5;fill-opacity:1;fill-rule:nonzero;stroke:none"
         d="m 8024.79,2363.21 h -365.65 c -12.36,0 -22.38,10.01 -22.38,22.37 v 2.47 c 0,12.36 10.02,22.37 22.38,22.37 h 365.65 c 12.36,0 22.38,-10.01 22.38,-22.37 v -2.47 c 0,-12.36 -10.02,-22.37 -22.38,-22.37" /><path
         id="path182"
         style="fill:#f2f2f2;fill-opacity:1;fill-rule:nonzero;stroke:none"
         d="m 6828.28,2666.04 h 2016.69 l 11.28,602.08 -311.47,454.59 -297.21,-518.15 -352,284.41 -449.72,-431.39 -280.98,173.15 -336.59,-370.63 v -194.06" /><path
         id="path184"
         style="fill:#e9e9e9;fill-opacity:1;fill-rule:nonzero;stroke:none"
         d="m 8175.18,2666.04 v 0 l -279.61,822.93 352,-284.41 -72.39,-538.52" /><path
         id="path186"
         style="fill:#eacdb0;fill-opacity:1;fill-rule:nonzero;stroke:none"
         d="m 1501.46,5217.34 c 2.1,-2.48 4.26,-5.07 5.53,-7.96 11.82,-26.9 1.87,-48 5.87,-77.02 1.78,-12.94 32.21,-27.17 11.55,-44.98 -7.63,-6.57 -28.61,-20.05 -45,-33.91 -23.9,-20.21 -41.99,-60.28 -50.48,-94.74 -33.35,-135.39 -28.93,-276.11 -20.18,-415.17 0.5,-7.92 1.14,-16.19 5.23,-22.99 7.34,-12.19 22.98,-15.85 36.92,-18.69 64.62,-13.17 128.02,-32.36 189.11,-57.23 54.5,-22.2 108.45,-49.88 148.06,-93.41 39.6,-43.52 62.77,-105.68 47.22,-162.44 -11.64,-42.5 -45.02,-78.42 -86.56,-93.15 -103.01,-36.51 -210.52,81.53 -285.51,137.67 -70.95,53.12 -138.18,111.2 -201.01,173.72 -7.75,7.72 -15.64,15.79 -19.73,25.93 -4.37,10.82 -4.01,22.88 -3.54,34.53 6.04,150.05 25.28,298.73 47.64,447.78 6.14,40.96 33.04,73.48 38.38,111.41 3.41,24.2 -11.33,45.64 -13.17,69.19 -1.82,23.3 1.74,54.35 8.63,76.65 13.61,43.99 58.54,59.57 96.46,77.05 9.44,4.35 15.81,7.32 25.54,6.79 15.82,-0.87 27.51,-10.85 39.47,-20.34 7.08,-5.62 13.75,-11.83 19.57,-18.69" /><path
         id="path188"
         style="fill:#7db5db;fill-opacity:1;fill-rule:nonzero;stroke:none"
         d="m 1439.69,4164.58 c -22.45,21.39 -43.6,43.88 -63.25,67.43 -59.29,71.03 -118.59,142.07 -177.88,213.1 -5.3,6.35 -10.69,12.86 -13.58,20.61 -4.94,13.28 -1.83,28.03 1.16,41.87 23.01,106.43 36.15,215 39.21,323.85 67.12,-28.15 141.07,-39.85 213.61,-33.78 0.14,-72.96 0.29,-145.92 0.43,-218.88 0.02,-8.28 0.18,-17.07 4.63,-24.05 4.22,-6.61 11.56,-10.44 18.62,-13.87 170.98,-83.2 358.27,-116.54 539.48,-170.9 87.56,-26.29 178.09,-54.18 246.66,-114.64 146.43,-129.09 62.66,-372.02 -139.19,-365.7 -238.51,7.47 -494.01,107.36 -669.9,274.96" /><path
         id="path190"
         style="fill:#eacdb0;fill-opacity:1;fill-rule:nonzero;stroke:none"
         d="m 2152.71,909.871 3.15,-221.832 -153.81,-1.75 -3.49,245.93 154.15,-22.348" /><path
         id="path192"
         style="fill:#3b455a;fill-opacity:1;fill-rule:nonzero;stroke:none"
         d="m 2013.74,721.039 114.33,-37.789 34.08,-36.691 -5.77,-86.95 -309.03,-24.007 c -26.11,38.019 -9.13,89.589 34.44,104.55 l 14.38,4.938 117.57,75.949" /><path
         id="path194"
         style="fill:#eacdb0;fill-opacity:1;fill-rule:nonzero;stroke:none"
         d="m 3100.04,1122.52 87.06,-204.059 -120.96,-51.492 -96.53,226.231 130.43,29.32" /><path
         id="path196"
         style="fill:#3b455a;fill-opacity:1;fill-rule:nonzero;stroke:none"
         d="m 3046.04,863.148 c 4.34,4.793 9.39,9.344 15.26,13.633 14.53,10.617 131.72,72.719 141.78,44.731 1.63,-4.551 1.11,-9.551 0.54,-14.352 -9.66,-80.531 -28.55,-159.949 -56.2,-236.199 -11.82,-32.621 -29.77,-68.75 -63.5,-76.879 -14.79,-3.57 -30.31,-0.941 -45.15,2.43 -21.88,4.949 -43.41,11.488 -64.36,19.519 -7.66,2.93 -15.8,6.559 -19.77,13.731 -7.96,14.367 5.92,31.386 20.4,39.129 14.49,7.738 32.18,13.3 39.25,28.129 3.17,6.64 3.62,14.21 4.02,21.558 2.95,54.582 -6.32,106.985 27.73,144.57" /><path
         id="path198"
         style="fill:#305399;fill-opacity:1;fill-rule:nonzero;stroke:none"
         d="m 2251.79,1937.88 c 43.13,-197.21 166.42,-338.88 298.12,-483.9 150.7,-165.95 292.47,-340.02 424.47,-521.199 57.05,23.789 114.11,47.578 171.17,71.379 -47.7,277.12 -179.16,531.39 -281.02,793.49 -70.79,182.14 -128.14,374.74 -131.25,571.57 -1.55,97.89 22.17,187.41 34.87,282.62 15.73,117.93 16.63,238.81 30.85,357.29 4.76,39.73 7.47,86.72 -23.08,112.56 -13.6,11.51 -31.52,16.35 -49.01,19.74 -648.78,125.64 -557.12,-828.56 -475.12,-1203.55" /><path
         id="path200"
         style="fill:#305399;fill-opacity:1;fill-rule:nonzero;stroke:none"
         d="m 2780.33,2972.02 c 0.35,119.65 -14.26,234.98 -36.64,322.93 -184.56,9.88 -393.12,-10.54 -575.64,-47.57 -178.4,-36.2 -289.66,-75.03 -290.95,-268.47 -2.36,-355.96 -141.49,-659.17 -201.56,-1001.31 -34.91,-198.83 25.41,-376.68 92.25,-560.83 76.48,-210.71 141.61,-425.551 195.01,-643.27 61.81,0.371 123.63,0.742 185.45,1.109 61,274.511 35.83,559.641 41.02,840.791 3.6,195.38 23.61,395.33 95.4,578.63 78.93,201.5 192.59,121.3 323.03,238.16 126.82,113.6 172.03,333.16 172.63,539.83" /><path
         id="path202"
         style="fill:#7db5db;fill-opacity:1;fill-rule:nonzero;stroke:none"
         d="m 2570.76,4341.89 c 20.38,-15.79 38.29,-34.84 55.99,-53.72 15.85,-16.91 31.7,-33.81 47.56,-50.72 54.92,-58.58 82.05,-145.29 105.59,-220.13 123.88,-393.82 168.47,-934.12 88.02,-1345.62 -305.13,-26.36 -658.3,50.58 -962.76,92.16 -29.6,4.05 -63.13,10.68 -78.5,36.31 -9.31,15.53 -9.58,34.66 -9.58,52.77 0.04,261.23 55.24,541.99 107.02,799.51 21.85,108.67 48.77,216.42 83.29,321.79 36.55,111.54 77.75,231.98 163.26,316.36 91.51,90.29 266.72,134.88 381.27,64.4 6.54,-4.03 12.8,-8.42 18.84,-13.11" /><path
         id="path204"
         style="fill:#eacdb0;fill-opacity:1;fill-rule:nonzero;stroke:none"
         d="m 2452.55,4361.07 c -1.83,-3.81 -4.33,-7.48 -7.7,-10.98 -13.32,-13.83 -32.04,-21.95 -50.76,-25.12 -24.66,-4.17 -49.93,-0.71 -74.62,3.35 -33.35,5.48 -32.67,24.95 -38.25,54.95 -3.05,16.39 -5.12,32.94 -6.78,49.53 -0.91,9.09 1.78,41.79 -4.19,48.03 -4.05,4.23 -20.06,2.36 -27.18,5.85 -11.29,5.53 -20.87,16.01 -27.83,26.25 -11.22,16.51 -17.66,35.72 -23.96,54.66 -10.97,32.95 -21.93,65.9 -32.9,98.85 -11.21,33.67 -22.48,67.62 -26.7,102.85 -6.37,53.1 0.31,128.47 39.5,168.42 35.74,36.44 88.9,50.24 137.78,57.76 64.72,9.96 132.34,-0.21 189.3,-33.24 23.01,-13.34 44.94,-30.84 58.95,-55.32 21.59,-37.73 21.24,-85.53 20.17,-130.24 -0.99,-41.28 -1.98,-82.55 -2.98,-123.82 -1.14,-47.47 -5.65,-102.25 -40.51,-128.87 -18.51,-14.13 -43.1,-17.68 -58.79,-35.6 -19.66,-22.44 -17.51,-55.3 -17.65,-83.13 -0.08,-15.89 1.5,-30.9 -4.9,-44.18" /><path
         id="path206"
         style="fill:#3b455a;fill-opacity:1;fill-rule:nonzero;stroke:none"
         d="m 2233.38,4888.66 c -2.14,-3.92 -3.9,-7.98 -5.24,-12.19 -7.01,-22.04 -1.27,-46.58 -8.1,-68.68 -10.83,-35.05 -50.84,-56.96 -56.03,-93.27 -4.24,-29.7 16.68,-57.29 19.15,-87.18 2.7,-32.66 -17.45,-64.16 -13.38,-96.36 3.54,-27.97 22.34,-66.93 39.66,-88.97 -5.37,6.83 -52.25,3.15 -64.62,10.28 -18.95,10.92 -21.26,18.04 -27.31,37.34 -6,19.17 -2.22,38.3 -11.31,57.86 -11.16,23.99 -33.28,41.25 -41.52,66.93 -11.25,35.05 6.58,72.78 4.18,109.5 -3.64,55.59 -53.08,106.79 -36.98,160.12 9.45,31.28 39.07,51.89 55.3,80.25 12.32,21.54 16.43,46.67 24.76,70.04 8.33,23.38 23.08,46.93 46.7,54.56 13.12,4.24 27.38,3 40.86,5.87 23.31,4.96 42.36,21.62 64.74,29.83 32,11.75 89.79,-19.44 109.33,-46.32 19.4,-26.68 10.55,-50.01 -7.96,-74.52 -30.82,-40.8 -107.11,-68.94 -132.23,-115.09" /><path
         id="path208"
         style="fill:#3b455a;fill-opacity:1;fill-rule:nonzero;stroke:none"
         d="m 2663.96,5064.14 c 19.7,-13.7 43.85,-23.34 61.95,-39.47 35.27,-31.46 43.14,-83.01 45.59,-130.21 2.18,-42.03 21.53,-78.93 18.1,-122.87 -2.31,-29.52 -14.06,-59.61 -37.57,-77.6 -29.28,-22.4 -76.02,-27.15 -88.45,-61.86 -13.5,-37.7 26.38,-83.73 3.73,-116.76 -12.5,-18.22 -37.81,-21.49 -56.03,-33.99 -20.33,-13.94 -30.34,-38.17 -42.43,-59.65 -12.08,-21.49 -30.5,-43.17 -55.12,-44.33 -1.96,37.45 -3.83,67.11 11.3,101.79 8.82,20.2 35.33,57.73 13.69,78.82 -13.76,17.62 -45.3,22.66 -46.68,44.99 -0.65,10.47 6.44,19.59 12,28.51 21.48,34.49 22.61,79.76 6.48,117.07 -16.12,37.31 -48.12,66.62 -85.14,83.4 -43.39,19.66 -36.75,30.3 -50.26,71.01 -12.42,37.47 -34.08,45.78 -68.42,58.67 -30.84,11.58 -40.84,19.03 -52.83,47.3 -8.78,20.7 -19.57,45.47 -8.21,69.1 9.03,18.79 25.79,32.48 42.03,45.53 33.93,27.27 72.11,56.01 115.59,53.99 24.15,-1.12 47.12,-11.86 71.28,-12.62 16.12,-0.5 32.03,3.47 48.13,4.42 27.44,1.62 56.63,-5.99 79.28,-21.77 22.86,-15.93 22.67,-33.2 35.73,-56.29 6.4,-11.32 15.69,-19.83 26.26,-27.18" /><path
         id="path210"
         style="fill:#3b455a;fill-opacity:1;fill-rule:nonzero;stroke:none"
         d="m 2562.83,5215.73 c -4.88,26 -3.04,60.09 21.66,69.54 13.54,5.18 28.99,0.28 43.11,3.53 30.1,6.93 39.47,43.84 54.66,70.73 2.28,4.03 5,8.12 9.17,10.11 5.97,2.84 12.96,0.63 19.54,0 30.21,-2.91 52.33,27.39 80.41,38.89 34.77,14.23 79.49,-6.58 90.99,-42.34 4.72,-14.7 4.37,-30.62 8.83,-45.4 18.06,-59.86 107,-83.25 110.83,-145.66 2.58,-42.18 -37.69,-83.67 -20.63,-122.33 10.9,-24.72 43.48,-40.93 40.49,-67.79 -1.92,-17.28 -19.96,-29.47 -37.34,-29.67 -17.38,-0.2 -33.59,8.93 -46.97,20.03 -21.24,17.61 -37.49,40.49 -57.77,59.19 -20.29,18.71 -47.08,33.62 -74.36,29.5 -26.43,-3.99 -49.89,-25.24 -76.35,-21.5 -21.16,3 -37.28,21.4 -58.12,26.17 -19.5,4.46 -39.44,-3.67 -59.36,-5.38 -19.93,-1.71 -44.71,8.05 -45.75,28.02 -0.25,4.84 0.98,9.88 -0.66,14.44 -4.59,12.77 -26.58,11.47 -31.09,24.28 10.01,16.32 24.85,10.94 31.78,32.11 5.36,16.37 0,37.2 -3.07,53.53" /><path
         id="path212"
         style="fill:#929293;fill-opacity:1;fill-rule:nonzero;stroke:none"
         d="m 1569.6,5020.85 26.13,-118.44 c 8.49,-38.47 45.79,-62.95 83.32,-54.67 l 303.5,66.96 c 37.53,8.28 61.07,46.18 52.58,84.65 L 2009,5117.8 1569.6,5020.85" /><path
         id="path214"
         style="fill:#d7e8f4;fill-opacity:1;fill-rule:nonzero;stroke:none"
         d="m 2174.36,6822.07 c -91.94,416.7 -495.96,681.81 -902.4,592.14 -406.448,-89.67 -661.417,-500.17 -569.483,-916.87 32.671,-148.08 104.781,-276.99 202.378,-377.66 l -0.035,-0.01 c 282.4,-306.61 394.74,-590.83 394.74,-590.83 l 370.33,81.71 370.33,81.7 c 0,0 -17.68,305.1 109.49,702.08 l -0.03,-0.01 c 46.17,132.39 57.35,279.67 24.68,427.75" /><path
         id="path216"
         style="fill:#bcbec0;fill-opacity:1;fill-rule:nonzero;stroke:none"
         d="m 1291.03,5526.96 111.01,-503.16 c 4.64,-21.02 24.62,-34.48 44.64,-30.06 l 685.23,151.17 c 20.02,4.42 32.49,25.04 27.85,46.06 l -111.01,503.17 -757.72,-167.18" /><path
         id="path218"
         style="fill:#bfcfd8;fill-opacity:1;fill-rule:nonzero;stroke:none"
         d="m 2130.12,6960.45 c -104.26,-415.91 -339.6,-1074.81 -831.36,-1429.64 0.48,-1.17 0.8,-1.96 0.8,-1.96 l 370.33,81.7 370.33,81.7 c 0,0 -17.68,305.1 109.49,702.08 l -0.03,-0.01 c 46.17,132.39 57.35,279.67 24.68,427.75 -10.66,48.31 -25.68,94.47 -44.24,138.38" /><path
         id="path220"
         style="fill:#ffffff;fill-opacity:1;fill-rule:nonzero;stroke:none"
         d="m 836.438,6461.81 c -80.266,363.8 142.328,722.17 497.172,800.46 207.41,45.76 414.06,-14.34 566.04,-144.8 -154.51,172.98 -391.79,260.04 -630.02,207.48 -354.849,-78.29 -577.439,-436.66 -497.177,-800.45 33.348,-151.15 113.758,-279.42 221.785,-372.16 -75.629,84.67 -131.429,189.93 -157.8,309.47" /><path
         id="path222"
         style="fill:#f6f7f7;fill-opacity:1;fill-rule:nonzero;stroke:none"
         d="m 1526.78,5578.97 -302.23,946.13 147.59,-78.5 69.55,199.96 147.45,-146.19 99.81,128.15 124.05,-986.4 38.01,8.39 -135.36,1076.3 -130.48,-167.53 -159.97,158.61 -74.86,-215.17 -191.95,102.1 330.38,-1034.23 38.01,8.38" /><path
         id="path224"
         style="fill:#edeced;fill-opacity:1;fill-rule:nonzero;stroke:none"
         d="m 1458.63,5664.94 30.14,-94.35 38.01,8.38 -37.23,116.55 c -10.17,-10.32 -20.47,-20.52 -30.92,-30.58" /><path
         id="path226"
         style="fill:#edeced;fill-opacity:1;fill-rule:nonzero;stroke:none"
         d="m 1761.92,6048.26 51.08,-406.14 38.01,8.39 -56.84,451.89 c -10.49,-18.15 -21.24,-36.2 -32.25,-54.14" /><path
         id="path228"
         style="fill:#a9a9aa;fill-opacity:1;fill-rule:nonzero;stroke:none"
         d="m 2096.81,5476.28 -757.72,-167.17 -20.5,92.92 757.72,167.17 20.5,-92.92" /><path
         id="path230"
         style="fill:#a9a9aa;fill-opacity:1;fill-rule:nonzero;stroke:none"
         d="m 2140.59,5277.85 -757.72,-167.18 -20.5,92.92 757.72,167.17 20.5,-92.91" /><path
         id="path232"
         style="fill:#96928d;fill-opacity:1;fill-rule:nonzero;stroke:none"
         d="m 1777.79,5295.24 342.3,75.52 -23.28,105.52 -211.15,-46.59 c -35.35,-49.8 -71.55,-94.43 -107.87,-134.45" /><path
         id="path234"
         style="fill:#96928d;fill-opacity:1;fill-rule:nonzero;stroke:none"
         d="m 2076.31,5569.2 -27.56,124.94 -11.92,-2.64 c -24.81,-53.08 -50.85,-102.39 -77.8,-148.18 l 117.28,25.88" /><path
         id="path236"
         style="fill:#a9a9aa;fill-opacity:1;fill-rule:nonzero;stroke:none"
         d="m 1446.68,4993.74 685.23,151.17 c 20.02,4.42 32.49,25.04 27.85,46.06 l -19.17,86.88 -494.76,-109.16 c -88.91,-73.8 -172.9,-122.48 -240.41,-154.11 7.65,-15.5 24.39,-24.57 41.26,-20.84" /><path
         id="path238"
         style="fill:#73726f;fill-opacity:1;fill-rule:nonzero;stroke:none"
         d="m 1885.66,5429.69 211.15,46.59 -20.5,92.92 -117.28,-25.88 c -23.86,-40.54 -48.39,-78.41 -73.37,-113.63" /><path
         id="path240"
         style="fill:#73726f;fill-opacity:1;fill-rule:nonzero;stroke:none"
         d="m 1645.83,5168.69 494.76,109.16 -20.5,92.91 -342.3,-75.52 c -44.25,-48.75 -88.68,-90.63 -131.96,-126.55" /><path
         id="path242"
         style="fill:#5d5a59;fill-opacity:1;fill-rule:nonzero;stroke:none"
         d="M 2024.87,5045.85 C 1958.02,4942.64 1799.95,4881 1747.24,4862.78 l 235.31,51.92 c 37.53,8.28 61.07,46.18 52.58,84.65 l -10.26,46.5" /><path
         id="path244"
         style="fill:#bcbec0;fill-opacity:1;fill-rule:nonzero;stroke:none"
         d="M 1533.98,4205.44 1176.12,4427.4 756,3568.91 c -19.449,-38.57 -6.809,-85.2 29.152,-107.5 l 415.008,-257.4 c 35.96,-22.31 83.35,-12.91 109.26,21.65 l 582.42,757.82 -357.86,221.96" /><path
         id="path246"
         style="fill:#9e9d9d;fill-opacity:1;fill-rule:nonzero;stroke:none"
         d="m 749.844,3508.91 c 5.25,-19.21 17.375,-36.38 35.308,-47.5 l 415.008,-257.4 c 35.96,-22.31 83.35,-12.92 109.26,21.65 l 582.33,757.7 -1141.906,-474.45" /><path
         id="path248"
         style="fill:#9f9b93;fill-opacity:1;fill-rule:nonzero;stroke:none"
         d="m 1176.12,4427.4 685.16,-480.42 81.52,103.14 z" /><path
         id="path250"
         style="fill:#587bc9;fill-opacity:1;fill-rule:nonzero;stroke:none"
         d="m 1058.46,4194.06 676.62,-419.66 -336.88,-430.33 -575.567,356.99 235.827,493" /><path
         id="path252"
         style="fill:#3b455a;fill-opacity:1;fill-rule:nonzero;stroke:none"
         d="m 1148.96,4441.79 764.37,-474.09 46.21,74.5 -764.37,474.09 -46.21,-74.5" /><path
         id="path254"
         style="fill:#305399;fill-opacity:1;fill-rule:nonzero;stroke:none"
         d="m 1953.32,4222.56 c -0.13,14.08 -7.33,27 -19.13,34.32 l -265.98,164.97 -265.99,164.98 c -11.79,7.31 -26.57,8.02 -39.24,1.87 l -120.91,-101.5 337.02,-209.03 337.02,-209.03 37.21,153.42" /><path
         id="path256"
         style="fill:#eacdb0;fill-opacity:1;fill-rule:nonzero;stroke:none"
         d="m 1160.6,3658.16 c 2.97,1.34 6.05,2.71 9.17,3.14 29.11,4 46.69,-11.35 75.69,-15.47 12.93,-1.83 34.95,23.54 46.42,-1.21 4.23,-9.14 11.45,-33.01 20.28,-52.57 12.89,-28.53 46.46,-56.9 77.28,-74.51 121.07,-69.17 257.61,-103.48 393.74,-133.18 7.76,-1.69 15.89,-3.34 23.56,-1.26 13.72,3.71 21.53,17.75 28.08,30.37 30.38,58.55 66.2,114.26 106.87,166.19 36.28,46.34 77.68,90.63 130.4,116.8 52.71,26.16 118.84,31.41 169.16,0.9 37.69,-22.84 63.09,-64.79 65.86,-108.78 6.89,-109.07 -136.09,-180.12 -210.64,-236.85 -70.52,-53.68 -144.8,-102.42 -222.14,-145.71 -9.55,-5.34 -19.47,-10.71 -30.36,-11.87 -11.59,-1.24 -23.09,2.42 -34.17,6.06 -142.65,46.92 -280.36,106.18 -417.58,168.52 -37.71,17.14 -61.62,51.92 -96.63,67.44 -22.34,9.91 -47,1.62 -70.15,6.3 -22.91,4.63 -51.79,16.56 -71.36,29.31 -38.57,25.13 -41.24,72.62 -47.66,113.87 -1.6,10.28 -2.7,17.21 0.47,26.42 5.17,14.98 17.98,23.49 30.38,32.39 7.34,5.27 15.14,9.98 23.33,13.7" /><path
         id="path258"
         style="fill:#7db5db;fill-opacity:1;fill-rule:nonzero;stroke:none"
         d="m 2599.76,3866.45 c 1.42,4.25 3.03,8.47 4.39,12.72 61.39,192.39 -149.29,339.52 -313.56,234.08 -76.93,-49.38 -128.57,-128.8 -177.84,-205.8 -61.8,-96.66 -116.75,-197.66 -177.95,-294.68 -95.96,-152.17 -255.29,-139.36 -415.28,-102.12 -31.74,-76.37 -69.86,-150.07 -113.86,-220.1 114.76,-52.81 230.79,-106.04 354.57,-131.27 123.78,-25.24 257.88,-20.28 369.38,39.11 87.81,46.77 155.47,123.39 218.15,200.66 112.7,138.92 218.73,292.23 252,467.4" /></g></g></svg>