<?xml version="1.0" encoding="UTF-8" standalone="no"?>
<svg
   xmlns:dc="http://purl.org/dc/elements/1.1/"
   xmlns:cc="http://creativecommons.org/ns#"
   xmlns:rdf="http://www.w3.org/1999/02/22-rdf-syntax-ns#"
   xmlns:svg="http://www.w3.org/2000/svg"
   xmlns="http://www.w3.org/2000/svg"
   viewBox="0 0 1466.6667 1066.6667"
   height="1066.6667"
   width="1466.6667"
   xml:space="preserve"
   id="svg2"
   version="1.1"><metadata
     id="metadata8"><rdf:RDF><cc:Work
         rdf:about=""><dc:format>image/svg+xml</dc:format><dc:type
           rdf:resource="http://purl.org/dc/dcmitype/StillImage" /></cc:Work></rdf:RDF></metadata><defs
     id="defs6" /><g
     transform="matrix(1.3333333,0,0,-1.3333333,0,1066.6667)"
     id="g10"><g
       transform="scale(0.1)"
       id="g12"><path
         id="path14"
         style="fill:#ffffff;fill-opacity:1;fill-rule:nonzero;stroke:none"
         d="M 0,0 H 11000 V 8000 H 0 Z" /><path
         id="path16"
         style="fill:#f6eaea;fill-opacity:1;fill-rule:nonzero;stroke:none"
         d="m 9101.63,500.969 c -59.68,0 -119.69,2.32 -180.37,7.98 -231.83,21.641 -466.83,32.453 -697.5,63.332 -529.41,70.867 -1059.06,75.059 -1592.33,75.059 -211.73,0 -423.46,1.98 -635.15,1.98 -308.22,0 -616.32,-4.191 -923.94,-24.781 -479.84,-32.109 -960.46,-37.23 -1441.17,-37.23 -72.57,0 -145.18,0.113 -217.75,0.273 -4.63,0.008 -9.26,0.02 -13.89,0.02 -266.23,0 -531.41,-16.403 -797.23,-27.993 -266.99,-11.64 -526.59,-30.75 -792.03,-30.75 -23.93,0 -47.95,0.161 -71.99,0.493 -265.22,3.648 -669.06,80.918 -858.268,277.847 -112.344,117.012 -97.11,398.511 15.398,511.331 49.153,49.28 128.38,87.88 193.09,111.37 184.38,66.9 372.01,67.06 564.66,68.45 2.37,0.01 4.72,0.02 7.09,0.02 132.93,0 271.16,-26.8 398.57,-64.02 115.92,-33.87 234.35,-45.74 352.25,-66.83 96.48,-17.26 199.7,-25.52 301.79,-25.52 66.41,0 132.37,3.5 195.63,10.3 171.18,18.39 343.58,26.94 515.26,41.43 213.18,18 421.82,57.02 634.26,77.94 106.34,10.47 210.23,36.43 316.34,48.23 281.43,31.3 563.36,38.08 845.29,38.92 22.86,0.07 45.71,0.1 68.58,0.1 134.21,0 268.42,-1.01 402.56,-1.01 109.13,0 218.19,0.33 327.26,0.33 373.14,0 745.97,-3.83 1118.1,-37.68 115.33,-10.48 229.91,-4.14 343.63,-29.09 114.17,-25.06 229.42,-47.92 346.4,-52.38 100.08,-3.82 200.43,-5.08 300.92,-5.08 178.76,0 357.86,3.98 536.01,4.63 17.86,0.06 42.71,0.17 73.56,0.17 398.87,0 1787.84,-18.34 1688.24,-389.02 C 10386.6,907.352 10164,721.949 10039.1,662.27 9881.36,586.879 9708.85,542.281 9535.2,527.242 9388.84,514.57 9246.15,500.969 9101.63,500.969" /><path
         id="path18"
         style="fill:#d67086;fill-opacity:1;fill-rule:nonzero;stroke:none"
         d="m 1422.93,5014.21 c 210.17,41.41 250.75,266.76 254.87,293.88 0.32,1.84 -0.04,3.52 -0.88,5.21 l -13.59,27.07 -48.56,96.58 -48.5,96.59 -13.58,27.08 c -0.87,1.68 -2.01,2.97 -3.71,3.83 -24.18,12.88 -229.24,114.91 -387.94,-28.96 -5.91,-5.36 -2.35,-15.21 5.66,-15.68 35.18,-2.03 105.8,-7.98 138.56,-23.84 7.5,-3.64 5.77,-14.91 -2.41,-16.81 -46.79,-10.99 -171.09,-50.96 -234.73,-173.88 -79.397,-153.3 -57.47,-171.69 -57.47,-171.69 l 3.28,1.64 -3.28,-1.64 c 0,0 1.83,-28.63 172.07,-56.45 136.62,-22.38 242.9,53.51 279.65,84.46 6.42,5.39 16.52,0.08 14.93,-8.15 -6.81,-35.72 -44.2,-95.9 -63.62,-125.36 -4.37,-6.66 1.41,-15.4 9.25,-13.88" /><path
         id="path20"
         style="fill:#eed5d5;fill-opacity:1;fill-rule:nonzero;stroke:none"
         d="m 1490.99,5119.83 c 149.26,24.86 171.02,195.91 173.12,216.51 0.17,1.42 -0.13,2.72 -0.78,4.03 l -48.56,96.58 -48.5,96.59 c -0.66,1.3 -1.54,2.32 -2.74,3.07 -17.81,10.63 -168.04,95.26 -277.1,-9.63 -4.06,-3.86 -1.2,-11.54 4.58,-12.14 25.26,-2.69 76.06,-9.52 100.04,-22.75 5.53,-3 4.61,-11.55 -1.14,-12.76 -33.19,-6.9 -120.98,-33.43 -162.62,-125.4 -51.92,-114.66 -35.58,-129.44 -35.58,-129.44 0,0 1.9,-19.28 103.44,-43.79 6.77,-1.62 14,-3.27 21.65,-4.96 98.64,-21.52 172.32,33.05 197.71,55.55 4.4,3.91 11.83,-0.46 10.95,-6.71 -3.74,-27.11 -28.58,-71.93 -41.54,-93.81 -2.9,-4.99 1.5,-11.83 7.07,-10.94" /><path
         id="path22"
         style="fill:#ccaf5d;fill-opacity:1;fill-rule:nonzero;stroke:none"
         d="m 2051.87,4960.08 c 192.24,121.5 250.35,337 264.65,407.45 l -479.2,-96.07 c 1.86,0.27 3.73,0.59 5.58,0.91 0.29,-1.31 0.36,-2.7 0.65,-4 -3.28,-120.53 -75.76,-290.48 -115.33,-361.39 -47.18,-84.63 91.67,-93.53 323.65,53.1" /><path
         id="path24"
         style="fill:#292949;fill-opacity:1;fill-rule:nonzero;stroke:none"
         d="m 1682.29,5472.41 c -0.75,1.46 -1.4,2.86 -2.11,4.37 l -0.26,-0.12 c -70.19,141.76 -67.81,215.41 -63.05,241.46 -28.32,-27.15 -57.42,-55.14 -87.58,-84.07 0,0 -25.77,-58.27 51.46,-212.53 77.22,-154.26 139.75,-169.39 139.75,-169.39 40.23,6.69 79.05,13.07 116.82,19.33 l 2.73,0.53 -0.16,0.09 0.36,0.07 c -24.28,12.45 -85.82,56.1 -157.96,200.26" /><path
         id="path26"
         style="fill:#292949;fill-opacity:1;fill-rule:nonzero;stroke:none"
         d="m 2051.99,4960.29 c 192.26,121.5 250.35,337.01 264.66,407.44 l -479.21,-96.07 c 1.85,0.3 3.74,0.62 5.59,0.94 0.31,-1.33 0.36,-2.7 0.66,-4.04 -3.29,-120.51 -75.77,-290.46 -115.31,-361.34 -47.22,-84.65 91.66,-93.56 323.61,53.07" /><path
         id="path28"
         style="fill:#5d66d3;fill-opacity:1;fill-rule:nonzero;stroke:none"
         d="m 2761.05,5577.04 c 43.92,32.29 83.79,64.77 120,97.05 253.39,225.72 327.73,441.84 347.07,517.15 -12.87,11.96 -23.82,26.2 -32.63,42.35 l -0.33,-0.16 -1.12,1.91 c -0.55,1.08 -1.22,2.07 -1.76,3.17 -6.86,13.72 -11.47,27.9 -14.31,42.25 -66.76,26.53 -234.25,77.58 -484.79,50.04 -84.28,-9.28 -177.91,-27.43 -280.28,-58.43 -164.77,-49.93 -299.03,-126.44 -432.74,-229.43 l -0.64,0.33 -230.99,-205.88 -130.59,-116.36 0.93,-0.98 -2,-1.93 c -4.56,-25.08 -6.85,-94.15 55.35,-225.43 3.12,-6.71 6.33,-13.46 9.87,-20.5 72.19,-144.09 133.68,-187.8 157.96,-200.2 l 476.49,95.57 0.01,0.1 0.16,0.03 0.02,0.05 c 163.12,45.37 305.31,107.03 444.32,209.3" /><path
         id="path30"
         style="fill:#292949;fill-opacity:1;fill-rule:nonzero;stroke:none"
         d="m 3348.05,6270.81 c 24.65,22.98 32.37,41.51 27.59,51.06 l -1.03,1.19 -0.05,-0.04 c -4.23,6.12 -15.1,10.01 -32.46,9.7 -7.02,-0.12 -14.96,-0.88 -24.1,-2.5 -32.65,-5.85 -87.72,-25.31 -138.29,-50.08 l -1.74,0.62 c 2.84,-14.31 7.44,-28.56 14.28,-42.26 0.57,-1.09 1.24,-2.08 1.81,-3.16 8.94,-17.01 20.5,-31.82 33.86,-44.27 l 0.07,0.29 0.13,-0.12 0.1,0.42 c 44.18,22.83 86.53,50.66 111.83,72.17 2.83,2.39 5.62,4.75 8,6.98" /><path
         id="path32"
         style="fill:#d67086;fill-opacity:1;fill-rule:nonzero;stroke:none"
         d="m 2785.99,6032.96 c -58.24,106.45 -191.21,148.32 -301.26,93.28 -112.53,-56.42 -158.52,-192.79 -102.33,-304.77 55.99,-111.96 192.81,-157.05 305.38,-100.64 21.15,10.57 39.94,23.99 56.13,39.55 70.35,67.2 92.22,174.48 46.65,265.56 -1.27,2.55 -3.06,4.55 -4.45,7.08 l -0.12,-0.06" /><path
         id="path34"
         style="fill:#a2a4a7;fill-opacity:1;fill-rule:nonzero;stroke:none"
         d="m 3193.87,6234.21 -0.17,0.3 -0.29,0.5 -0.65,1.17 -0.11,0.19 1.22,0.72 0.81,-1.44 0.42,-0.75 -1.23,-0.69" /><path
         id="path36"
         style="fill:#292949;fill-opacity:1;fill-rule:nonzero;stroke:none"
         d="m 2531.59,4914.15 c 0,0 67.94,-34.15 79.58,-213.2 11.63,-179.04 53.22,-288.96 53.22,-288.96 0,0 -53.42,-40.32 -102.72,-22.95 -49.29,17.36 -66.72,19.14 -66.21,93.05 0.52,73.91 -41.96,416.36 -41.96,416.36 l 78.09,15.7" /><path
         id="path38"
         style="fill:#292949;fill-opacity:1;fill-rule:nonzero;stroke:none"
         d="m 2402.17,4823.85 c 69.7,-3.32 135.01,-52.63 157.36,-118.84 28.41,41.52 35.24,97.03 17.75,144.23 -17.49,47.21 -58.83,84.85 -107.42,97.8 -35.88,-30.75 -58.88,-76.1 -62.54,-123.25 l -5.15,0.06" /><path
         id="path40"
         style="fill:#d67086;fill-opacity:1;fill-rule:nonzero;stroke:none"
         d="m 2317.74,4400.4 -217.59,-79.83 -158,-143.49 -3.28,643.48 -197.22,-30.61 -65.3,-742.54 210.19,-177.83 422.99,143.75 8.21,387.07" /><path
         id="path42"
         style="fill:#292949;fill-opacity:1;fill-rule:nonzero;stroke:none"
         d="m 2038.08,1166 -7.04,-56.21 100.56,-72.69 60.83,47.99 -46.77,64.45 -100.55,72.68 -7.03,-56.22" /><path
         id="path44"
         style="fill:#3b3387;fill-opacity:1;fill-rule:nonzero;stroke:none"
         d="m 2081.32,2888.91 -21.35,-170.74 139.4,-591.64 -164.66,-941.55 103.92,-38.63 298.07,915.99 50.18,267.33 11.82,568.18 -417.38,-8.94" /><path
         id="path46"
         style="fill:#3b3387;fill-opacity:1;fill-rule:nonzero;stroke:none"
         d="M 2882.65,2679.13 2624.87,1101 l -100.17,2.37 5.94,1015.33 -165.49,716.67 517.5,-156.24" /><path
         id="path48"
         style="fill:#292949;fill-opacity:1;fill-rule:nonzero;stroke:none"
         d="m 2525.58,1115.87 -1.35,-56.87 106.98,-59.43 55.51,55.59 -52.82,58.15 -108.32,2.56" /><path
         id="path50"
         style="fill:#d67086;fill-opacity:1;fill-rule:nonzero;stroke:none"
         d="m 2091.82,3098.74 c 99.16,573.96 78.51,994.15 85.67,1109.22 7.15,115.07 87.47,172.98 87.51,173 34.81,7.08 65.49,29.21 100.67,37.4 237.99,55.38 362.65,-132.7 446.49,-334.37 103.28,-248.48 188.95,-504.74 256.93,-765.71 59.66,-229.03 119.42,-460.11 141.12,-696.85 8.96,-97.68 16.16,-190.29 -88.96,-230.81 -167.52,-64.56 -353.92,-58.66 -529.67,-76.48 -201.87,-20.47 -403.86,-34.14 -606.68,-37.99 -105.89,-2 7.76,248.63 106.92,822.59" /><path
         id="path52"
         style="fill:#ddc8ac;fill-opacity:1;fill-rule:nonzero;stroke:none"
         d="m 1764.51,4791.02 -86.6,90.88 33.91,155.39 85.59,-2.02 21.97,-136.55 42.83,-27.14 -1.56,-65.64 -96.14,-14.92" /><path
         id="path54"
         style="fill:#d67086;fill-opacity:1;fill-rule:nonzero;stroke:none"
         d="m 2480.54,4427.47 225.64,-45.64 452.67,-459.09 539.27,7.41 26.29,-166.88 -632.05,-95.91 -510.8,344.59 -101.02,415.52" /><path
         id="path56"
         style="fill:#ffffff;fill-opacity:1;fill-rule:nonzero;stroke:none"
         d="m 2536.11,4414.12 27.24,-613.5 -300.27,589.67 92.36,30.55 65.89,18.08 114.78,-24.8" /><path
         id="path58"
         style="fill:#ddc8ac;fill-opacity:1;fill-rule:nonzero;stroke:none"
         d="m 3703.14,3888.54 100.58,59.27 126.51,-34.82 -1.61,-68.17 -213.08,-35.01 -12.4,78.73" /><path
         id="path60"
         style="fill:#ddc8ac;fill-opacity:1;fill-rule:nonzero;stroke:none"
         d="m 2555.46,4765.57 c -74.04,171.86 -290.95,90.82 -322.68,-68.84 -18.04,-90.79 26.58,-250.38 135.39,-254.44 5.12,-15.54 13.83,-44.86 28.33,-52.77 15.71,-8.57 54.62,11.64 69.99,19.02 4.27,2.05 8.68,4.4 11.21,8.39 3.16,5.01 1.39,16.13 -1.24,28.29 11.71,3.48 23.38,8.52 34.88,15.38 48.23,28.75 75.14,85.45 78.98,141.55 3.83,56.1 -12.61,111.78 -34.86,163.42" /><path
         id="path62"
         style="fill:#292949;fill-opacity:1;fill-rule:nonzero;stroke:none"
         d="m 2465.45,4946.54 c 0,0 43.38,-92.48 -74.93,-147.31 -118.3,-54.82 -177.31,-170.19 -132.89,-268.12 44.41,-97.93 153.24,-153.08 110.62,-190.98 -42.62,-37.91 -227.07,-50.75 -227.07,-50.75 0,0 -189.09,338.06 -78.16,527.48 110.94,189.41 320.57,241.94 402.43,129.68" /><path
         id="path64"
         style="fill:#292949;fill-opacity:1;fill-rule:nonzero;stroke:none"
         d="m 3436.66,1202.35 -9.12,-70.83 132.55,-89.04 79.94,61.72 -61.72,79.94 -132.55,89.04 -9.1,-70.83" /><path
         id="path66"
         style="fill:#b5b7b8;fill-opacity:1;fill-rule:nonzero;stroke:none"
         d="m 3432.17,1226.13 102.22,903.3 -122.99,1011.26 27.66,215.11 549.35,20.87 19.82,-350.12 -92.22,-898.5 -346.95,-948.08 -136.89,46.16" /><path
         id="path68"
         style="fill:#292949;fill-opacity:1;fill-rule:nonzero;stroke:none"
         d="m 3874.23,4361.67 281.84,-50.87 651.35,-154.9 -41.4,-218.29 -665.88,10.04 -225.91,414.02" /><path
         id="path70"
         style="fill:#b5b7b8;fill-opacity:1;fill-rule:nonzero;stroke:none"
         d="m 4391.5,3275.44 1.44,-911.56 -183.48,-1173.46 -132.06,1.31 -72.6,1085.19 -169.9,1086.15 556.6,-87.63" /><path
         id="path72"
         style="fill:#292949;fill-opacity:1;fill-rule:nonzero;stroke:none"
         d="m 4077.6,1136.04 142.1,-72.84 72.12,70.7 -70.69,72.12 -142.81,1.42 -0.72,-71.4" /><path
         id="path74"
         style="fill:#292949;fill-opacity:1;fill-rule:nonzero;stroke:none"
         d="m 3314.44,2896.57 c -2.2,39.46 -2.88,72.49 -3.6,84.25 -6.42,105.81 -6.24,211.96 -2.19,317.93 3.62,94.96 -1.85,329.44 6.06,424.19 6.53,78.23 35.93,274.66 63.09,349.07 67.54,185.05 40.43,199.23 400.83,283.97 157.95,37.14 204.49,-59.25 345.31,-162.45 13.89,-10.18 19.07,-77.57 23.62,-95.14 8.02,-30.93 16.41,-61.78 25.62,-92.41 7.24,-24.08 14.99,-48.03 23.42,-71.76 l -0.02,0.01 c 0,0 153.53,-490.05 235.43,-589.82 81.9,-99.76 244.89,-234.99 1.89,-347.54 -43.2,-18.26 -86.76,-35.86 -132.4,-47.22 0,0 -207.21,4.84 -312.68,-5.19 -97.14,-9.23 -193.87,-27.61 -287.99,-52.45 -62.95,-16.28 -126.8,-37.5 -181.35,-72.36 -52.04,-33.26 -87.74,-78.61 -140.48,-112.95 -5,-3.25 -10.49,-6.65 -16.52,-6.34 -32.17,1.62 -43.43,113.16 -48.04,196.21" /><path
         id="path76"
         style="fill:#e1cfb5;fill-opacity:1;fill-rule:nonzero;stroke:none"
         d="m 3779.02,4313.06 c -14.51,-14.65 -54.72,-31.94 -103.56,-29.89 -9.84,0.42 -18.57,6.77 -21.66,16.12 -8.65,26.27 -15.52,53.11 -20.57,80.3 -36.19,0.25 -79.36,4.44 -96.59,36.26 -5.43,10.02 -7.33,21.52 -9.15,32.77 -7.51,46.52 -15.03,93.04 -22.54,139.56 -2.61,16.09 -5.19,32.69 -1.41,48.54 6.64,27.82 31.33,47.48 56.39,61.27 63.93,35.19 143.09,45.95 211.13,19.55 18.11,-7.03 35.7,-16.92 47.83,-32.08 18.71,-23.38 21.7,-55.25 23.93,-85.12 2.06,-27.56 4.11,-55.13 6.17,-82.7 2.36,-31.7 2.71,-68.55 -21.55,-89.09 -12.89,-10.91 -31.04,-15.26 -41.56,-28.46 -18.55,-23.27 -3.21,-57.49 -6.86,-87.03" /><path
         id="path78"
         style="fill:#292949;fill-opacity:1;fill-rule:nonzero;stroke:none"
         d="m 4020.83,4885.95 c 2.92,13.26 6.47,26.32 11.11,39.01 10.04,27.5 25.18,53.31 31,82 5.83,28.68 -0.36,62.73 -24.75,78.91 -15.74,10.44 -35.81,11.46 -54.68,10.61 -62.18,-2.8 -123.51,-22.64 -175.56,-56.78 -49.57,-32.51 -90.32,-72.14 -152.03,-70.53 -57.99,1.52 -92.41,-19.07 -139.53,-56.7 -50.98,-40.73 -127.32,-72.45 -169.86,-119.82 -17.77,-19.79 -28.72,-44.92 -35.13,-70.72 -22.19,-89.4 12.23,-190.3 84.42,-247.51 16.2,-12.84 33.97,-23.54 52.16,-33.35 37.65,-20.31 83.08,-45.76 124.58,-43.8 -10.7,34.05 -78.03,129.87 -61.63,166.44 26.03,58.03 124.27,74.7 179.01,81.44 59.69,7.36 122.85,-14.99 180.91,-4.43 41.78,7.59 85.75,44.49 112.46,76.62 32.94,39.66 26.92,120.2 37.52,168.61" /><path
         id="path80"
         style="fill:#666666;fill-opacity:1;fill-rule:nonzero;stroke:none"
         d="m 5448.12,2776.69 -9.76,-184.78 c -3.17,-60.01 -53.19,-106.16 -111.73,-103.07 l -473.47,24.99 c -58.54,3.09 -103.43,54.25 -100.26,114.27 l 9.75,184.78 685.47,-36.19" /><path
         id="path82"
         style="fill:#8cabef;fill-opacity:1;fill-rule:nonzero;stroke:none"
         d="m 4088.28,5336.38 c 34.31,650.06 576.14,1149.9 1210.2,1116.43 634.06,-33.47 1120.26,-587.58 1085.94,-1237.63 -12.2,-231 -88.53,-443 -210.27,-618.87 l 0.05,-0.01 c -348.43,-531.94 -446.53,-987.7 -446.53,-987.7 l -577.71,30.49 -577.73,30.5 c 0,0 -49.56,463.56 -340.06,1029.23 l 0.05,-0.01 c -102.55,187.72 -156.13,406.57 -143.94,637.57" /><path
         id="path84"
         style="fill:#b0b0b0;fill-opacity:1;fill-rule:nonzero;stroke:none"
         d="m 5740.97,3607.89 -41.42,-784.93 c -1.74,-32.79 -28.45,-58.04 -59.68,-56.39 l -1068.97,56.42 c -31.22,1.66 -55.13,29.58 -53.41,62.37 l 41.44,784.93 1182.04,-62.4" /><path
         id="path86"
         style="fill:#dddddd;fill-opacity:1;fill-rule:nonzero;stroke:none"
         d="m 5727.67,3608.6 -577.71,30.49 -53.93,2.85 53.93,-2.85 577.71,-30.49 c 0,0 0.23,1.06 0.7,3.15 0.01,0 0.01,0 0.01,0 -0.43,-1.88 -0.71,-3.15 -0.71,-3.15" /><path
         id="path88"
         style="fill:#839bd1;fill-opacity:1;fill-rule:nonzero;stroke:none"
         d="m 5727.67,3608.6 -577.71,30.49 -53.93,2.85 -523.8,27.65 c -0.13,1.24 -49.95,464.32 -340.06,1029.23 l 0.05,-0.01 v 0 c -92.93,170.12 -145.65,365.81 -145.65,572.94 0,21.43 0.57,42.98 1.71,64.63 3.98,75.36 15.05,148.58 32.03,219.3 260.74,-599.88 779.41,-1532.71 1608.07,-1943.93 -0.48,-2.09 -0.71,-3.15 -0.71,-3.15" /><path
         id="path90"
         style="fill:#9f9f9f;fill-opacity:1;fill-rule:nonzero;stroke:none"
         d="m 5096.03,3641.94 -523.8,27.65 v 0 0 l 523.8,-27.65" /><path
         id="path92"
         style="fill:#839bd1;fill-opacity:1;fill-rule:nonzero;stroke:none"
         d="m 6031.48,4623.15 c 92.68,146.3 150.37,318.63 160.21,505.12 29.96,567.52 -394.5,1051.27 -948.05,1080.49 -17.56,0.93 -35.07,1.38 -52.45,1.38 -302.98,0 -577.75,-139.05 -763.24,-360.62 180.38,284.77 493.3,470.93 843.87,470.93 17.4,0 34.87,-0.45 52.45,-1.38 553.56,-29.22 978.02,-512.97 948.06,-1080.49 -12.44,-235.8 -101.43,-448.9 -240.85,-615.43" /><path
         id="path94"
         style="fill:#474ebb;fill-opacity:1;fill-rule:nonzero;stroke:none"
         d="m 5373.2,3627.31 218.61,1499.3 -202.51,-154.98 -154.6,283.55 -185.4,-256.82 -182.2,167.93 59.6,-1515.41 -59.29,3.13 -65.02,1653.55 238.18,-219.54 201.14,278.62 166.38,-305.12 263.39,201.58 -238.98,-1638.92 -59.3,3.13" /><path
         id="path96"
         style="fill:#414baa;fill-opacity:1;fill-rule:nonzero;stroke:none"
         d="m 5454.3,3773.7 -21.8,-149.52 -59.3,3.13 26.93,184.69 c 17.89,-13 35.93,-25.78 54.17,-38.3" /><path
         id="path98"
         style="fill:#414baa;fill-opacity:1;fill-rule:nonzero;stroke:none"
         d="m 4902.16,4274.84 24.54,-623.96 -59.29,3.13 -27.3,694.24 c 20.32,-24.69 41.01,-49.16 62.05,-73.41" /><path
         id="path100"
         style="fill:#7f7f7f;fill-opacity:1;fill-rule:nonzero;stroke:none"
         d="m 4540.99,3330.44 1182.04,-62.4 7.66,144.96 -1182.04,62.39 -7.66,-144.95" /><path
         id="path102"
         style="fill:#7f7f7f;fill-opacity:1;fill-rule:nonzero;stroke:none"
         d="m 4524.65,3020.88 1182.04,-62.4 7.66,144.96 -1182.05,62.39 -7.65,-144.95" /><path
         id="path104"
         style="fill:#8e8e8e;fill-opacity:1;fill-rule:nonzero;stroke:none"
         d="m 5066.3,3137.64 -534,28.19 8.69,164.61 329.41,-17.39 c 65.62,-66.13 131.24,-124.25 195.9,-175.41" /><path
         id="path106"
         style="fill:#8e8e8e;fill-opacity:1;fill-rule:nonzero;stroke:none"
         d="m 4548.65,3475.39 10.28,194.9 18.6,-0.98 c 50.58,-73.69 102.09,-141.4 154.08,-203.58 l -182.96,9.66" /><path
         id="path108"
         style="fill:#8e8e8e;fill-opacity:1;fill-rule:nonzero;stroke:none"
         d="M 5639.87,2766.57 4570.9,2823 c -31.22,1.65 -55.13,29.57 -53.4,62.36 l 7.15,135.52 771.83,-40.74 c 152.24,-88.87 290.78,-141.15 400.28,-171.9 -7.64,-25.24 -30.57,-43.06 -56.89,-41.67" /><path
         id="path110"
         style="fill:#666666;fill-opacity:1;fill-rule:nonzero;stroke:none"
         d="m 4870.4,3313.05 -329.41,17.39 7.66,144.95 182.96,-9.66 c 46.02,-55.05 92.4,-105.92 138.79,-152.68" /><path
         id="path112"
         style="fill:#666666;fill-opacity:1;fill-rule:nonzero;stroke:none"
         d="m 5296.48,2980.14 -771.83,40.74 7.65,144.95 534,-28.19 c 78.76,-62.32 156.08,-114.25 230.18,-157.5" /><path
         id="path114"
         style="fill:#4e4e4e;fill-opacity:1;fill-rule:nonzero;stroke:none"
         d="m 4756.72,2700.65 c 126.37,-138.65 379.65,-191.94 463.53,-206.2 l -367.08,19.38 c -58.56,3.09 -103.44,54.25 -100.27,114.27 l 3.82,72.55" /><path
         id="path116"
         style="fill:#474ebb;fill-opacity:1;fill-rule:nonzero;stroke:none"
         d="m 5292.53,6626.51 -30.65,0.86 c -16.82,0.48 -30.06,14.49 -29.58,31.31 l 8.81,312.16 c 0.48,16.81 14.49,30.05 31.3,29.58 l 30.66,-0.86 c 16.81,-0.48 30.06,-14.49 29.58,-31.31 l -8.81,-312.16 c -0.48,-16.81 -14.49,-30.06 -31.31,-29.58" /><path
         id="path118"
         style="fill:#474ebb;fill-opacity:1;fill-rule:nonzero;stroke:none"
         d="m 4781.2,6571.19 -29.92,-17.79 c -13.47,-8.01 -30.89,-3.59 -38.91,9.89 l -161.77,271.94 c -8.02,13.47 -3.59,30.89 9.88,38.91 l 29.92,17.79 c 13.47,8.02 30.89,3.59 38.91,-9.88 l 161.77,-271.94 c 8.02,-13.48 3.59,-30.9 -9.88,-38.92" /><path
         id="path120"
         style="fill:#474ebb;fill-opacity:1;fill-rule:nonzero;stroke:none"
         d="m 5784.59,6541.41 24.33,-16.4 c 14.26,-9.61 33.59,-5.84 43.2,8.41 l 173.8,257.85 c 9.61,14.25 5.84,33.6 -8.42,43.2 l -24.31,16.4 c -14.26,9.61 -33.61,5.84 -43.21,-8.41 l -173.79,-257.85 c -9.61,-14.25 -5.84,-33.6 8.4,-43.2" /><path
         id="path122"
         style="fill:#e1cfb5;fill-opacity:1;fill-rule:nonzero;stroke:none"
         d="m 4618.22,3760.84 162.88,-8.78 95.2,109.64 -51.94,43.4 -109.06,-38.28 -30.55,20.83 -111.01,-42.55 c 0,0 46.68,-84.27 44.48,-84.26" /><path
         id="path124"
         style="fill:#292949;fill-opacity:1;fill-rule:nonzero;stroke:none"
         d="m 3607.22,4216.36 540.11,-459.43 461.78,106.77 70.49,-133.55 -540.31,-247.21 -180.99,56.12 -465.18,454.78 114.1,222.52" /><path
         id="path126"
         style="fill:#d67086;fill-opacity:1;fill-rule:nonzero;stroke:none"
         d="m 9565.1,5821.92 c -3.31,-4.11 -9.33,-4.74 -13.44,-1.42 -47.02,38.05 -106.02,55.51 -166.19,49.18 -60.14,-6.34 -114.23,-35.72 -152.28,-82.73 -38.05,-47.02 -55.52,-106.04 -49.18,-166.19 0.55,-5.25 -3.25,-9.95 -8.51,-10.51 l -1.04,-0.05 c -4.83,0.01 -8.96,3.65 -9.47,8.56 -6.87,65.23 12.07,129.23 53.34,180.22 41.25,50.98 99.91,82.85 165.14,89.72 65.24,6.88 129.24,-12.07 180.22,-53.33 4.11,-3.32 4.74,-9.35 1.41,-13.45 z m -795.95,-207.04 c -1.05,-0.36 -2.11,-0.53 -3.17,-0.53 -3.94,0.01 -7.64,2.49 -9,6.43 -36.54,105.26 -151.11,161.6 -256.56,126.89 l -1.32,-0.42 -1.83,-0.58 c -4.98,-1.74 -10.43,0.91 -12.17,5.9 -0.94,2.73 -0.54,5.59 0.81,7.91 -19.41,83.15 -80.88,151.55 -161.75,179.36 -129.96,44.68 -272.06,-24.69 -316.74,-154.65 -1.71,-5 -7.15,-7.66 -12.15,-5.94 -4.99,1.72 -7.65,7.16 -5.93,12.15 48.11,139.94 201.09,214.64 341.04,166.52 85.83,-29.51 151.36,-101.47 173.23,-189.26 112.72,31.86 232.53,-29.53 271.43,-141.61 1.73,-4.99 -0.9,-10.44 -5.89,-12.17 z m 1060.26,482.25 c 0.43,177.42 -143.02,321.62 -320.45,322.12 -23.96,0.06 -59.93,-12.91 -81.96,-0.11 -18.39,10.69 -25.2,36.16 -39.33,51.16 -17.24,18.29 -36.93,34.27 -58.42,47.33 -43.31,26.33 -93.5,40.36 -144.19,40.5 -41.39,0.11 -80.69,-8.82 -116.07,-24.88 l -0.6,-0.28 -0.14,-0.05 c -2.25,-1.03 -4.49,-2.08 -6.7,-3.17 l -0.3,0.27 c -28.45,-12.52 -132.85,-66.45 -141.46,-185 61.47,1.97 123.22,-21.74 167.76,-69.74 45.22,44.32 110.39,63.82 172.7,50.96 50.02,-10.32 93.04,-39.5 121.1,-82.18 28.08,-42.66 37.85,-93.71 27.53,-143.74 -0.94,-4.52 -4.93,-7.64 -9.38,-7.62 l -1.92,0.2 c -5.17,1.06 -8.49,6.12 -7.43,11.29 19.18,92.94 -40.83,184.14 -133.76,203.32 -59.24,12.23 -121.35,-7.99 -162.12,-52.73 -3.55,-3.9 -9.6,-4.18 -13.5,-0.62 l -1.32,1.47 c -71.28,83.92 -197.51,94.38 -281.61,23.23 -4.04,-3.41 -10.06,-2.91 -13.48,1.13 -3.41,4.03 -2.91,10.06 1.12,13.47 33.85,28.64 73.94,45.16 114.98,50.11 7.28,121.24 105.44,180.95 145.08,200.22 -66.18,55.01 -151.13,88.24 -243.91,88.5 -137.26,0.38 -257.81,-71.42 -325.91,-179.6 -22.89,5.02 -46.64,7.77 -71.04,7.84 -119.95,0.34 -233.2,-65.71 -292.15,-170.16 -14.87,-26.35 -24.73,-53.91 -32.83,-82.91 -1.08,-3.91 -2.39,-7.41 -3.88,-10.6 69.02,25.65 165.28,44.69 270.85,15.62 5.09,-1.41 8.08,-6.67 6.67,-11.76 -1.39,-5.09 -6.65,-8.08 -11.75,-6.68 -220.07,60.6 -402.02,-95.67 -403.84,-97.26 -1.38,-1.21 -3.01,-1.94 -4.69,-2.23 -23.64,-18.58 -45.45,-39.36 -64,-63.94 -55.08,-73 -85.22,-162.98 -85.47,-254.4 -0.66,-234.71 189.09,-425.52 423.81,-426.17 26.45,-0.07 54.57,14.94 80.27,6.2 -13.84,38.11 -21.59,85.93 -5.99,136.25 1.57,5.04 6.93,7.87 11.97,6.3 5.04,-1.57 7.86,-6.92 6.3,-11.97 -32.24,-103.93 48.41,-200.67 49.22,-201.63 1,-1.18 1.63,-2.53 1.97,-3.93 14.1,-17.59 29.39,-31.39 49.76,-43.94 55.47,-34.18 120.27,-52.75 185.43,-52.93 55.2,-0.15 107.45,12.35 154.09,34.72 l 1.83,1.36 c 142.6,79.89 163.88,237.89 164.08,239.48 0.66,5.24 5.4,8.97 10.67,8.31 5.23,-0.66 8.95,-5.42 8.31,-10.66 -0.75,-6.11 -17.96,-135.31 -128.42,-223.39 66.12,-76.2 163.5,-124.58 272.31,-124.88 52.97,-0.15 107.97,15.25 158.1,34.83 52.86,20.66 91.21,-57.9 111.3,-91.7 29.57,-49.78 45.66,-111 87.83,-152.56 60.8,-59.92 126.78,-6.63 133.96,66.65 4.11,41.9 2.95,84.06 -1.95,125.84 -2.41,20.55 -6.68,44.21 2.67,63.73 11.15,23.31 32.43,19.64 54.66,24.89 42.71,10.07 82.97,29.78 117.19,57.23 69.59,55.82 110.98,141.61 111.22,230.82 0.1,34.55 -5.79,67.69 -16.56,98.55 -14.55,-6.25 -44.24,-16.71 -85,-19.47 -6.37,-0.43 -13.2,-0.68 -20.41,-0.65 -52.62,0.14 -126.22,14.35 -207.26,71.79 -4.31,3.05 -5.33,9.02 -2.28,13.33 3.07,4.31 9.02,5.32 13.34,2.27 167.07,-118.42 301.06,-46.53 302.38,-45.79 0.88,0.49 1.81,0.78 2.75,0.97 94.85,44.48 160.66,140.68 160.97,252.39 0.33,112.93 -66.42,210.33 -162.7,254.68" /><path
         id="path128"
         style="fill:#a39372;fill-opacity:1;fill-rule:nonzero;stroke:none"
         d="m 7474.96,4253.43 -101.49,68.6 27.43,44.65 79.91,-31.59 3.17,27.14 79.69,-69.29 -22.25,-50.26 -66.46,10.75" /><path
         id="path130"
         style="fill:#3b3387;fill-opacity:1;fill-rule:nonzero;stroke:none"
         d="m 8464.98,4402.26 -402.01,-260.41 -518.42,183.6 -39.05,-102 564.04,-352.42 563.47,208.04 -168.03,323.19" /><path
         id="path132"
         style="fill:#292949;fill-opacity:1;fill-rule:nonzero;stroke:none"
         d="m 8473.29,1196.51 v -57.5 l -147.45,-73.72 -73.72,73.72 73.72,73.72 h 9.52 l 2.37,-16.22 h 135.56" /><path
         id="path134"
         style="fill:#292949;fill-opacity:1;fill-rule:nonzero;stroke:none"
         d="m 8473.29,1196.51 h -135.56 l -2.37,16.22 h 137.93 v -16.22" /><path
         id="path136"
         style="fill:#3b3387;fill-opacity:1;fill-rule:nonzero;stroke:none"
         d="m 8678.34,4442.76 c 158.46,-9.53 320.88,-92.62 366.34,-246.89 3.75,-12.71 6.67,-25.71 7.73,-38.91 6.34,-79.26 -17.87,-137.81 5,-217.43 19.87,-69.17 37.88,-139.36 51.09,-210.14 19.14,-102.45 36.82,-204.43 50.73,-306.13 15.41,-112.64 26.28,-224.94 29.43,-336.59 0.35,-12.35 2.83,-46.86 4.23,-88.1 2.92,-86.37 1.04,-201.9 -35.33,-206.22 -6.8,-0.81 -13.38,2.21 -19.36,5.11 -46.79,22.73 -83.64,52.41 -124.89,78.34 -14.51,9.11 -29.55,17.77 -45.77,25.5 -32.5,15.47 -67.2,27.26 -102.81,36.6 59.87,-3.12 67.32,7.97 67.32,7.97 0,0 -54.02,216.94 -91.94,405.66 -19.55,97.25 -34.82,187.01 -36.22,235.69 -4.22,146.41 -22.95,629.97 -22.95,629.97 l -90.89,184.95 -16.76,-0.16 c 1.2,0.14 2.41,0.29 3.61,0.43 -1.7,15.79 -0.98,28.89 1.44,40.35" /><path
         id="path138"
         style="fill:#3b3387;fill-opacity:1;fill-rule:nonzero;stroke:none"
         d="m 8004.25,2888.46 c 9.31,95.88 18.97,191.74 30.76,287.35 23.53,190.7 55.56,380.95 109.74,565.55 20.7,70.53 44.58,140.07 68.46,209.59 29.06,84.65 58.13,169.3 87.21,253.95 36.13,105.21 97.09,179.33 203.87,216.14 19.06,6.57 39.14,11.64 59.83,15.35 0.5,-2.17 0.96,-4.38 1.25,-6.7 1.23,-10.11 4.12,-21.31 10.51,-28.64 l -70.07,-0.67 c 0,0 -197.72,-690.95 -204.98,-810.03 -2.77,-45.27 -11.95,-144.09 -22.17,-248.19 -16.17,-164.75 -34.94,-342.74 -34.94,-342.74 0,0 86.8,-2.05 212.37,-11.41 -9.29,0.21 -18.58,0.46 -27.85,0.54 -87.35,0.77 -177.93,-36.33 -261.56,-60.39 -6,-1.72 -11.98,-3.4 -17.92,-4.97 -34.06,-9.04 -61.77,-33.87 -90.07,-53.34 -41.81,-28.76 -60.13,-40.15 -54.44,18.61" /><path
         id="path140"
         style="fill:#3b3387;fill-opacity:1;fill-rule:nonzero;stroke:none"
         d="m 8166.68,2952.5 c 83.63,24.06 174.21,61.16 261.56,60.39 9.27,-0.08 18.56,-0.33 27.85,-0.54 7.77,-0.58 15.69,-1.19 23.75,-1.83 58.52,-4.63 124.29,-10.81 192.94,-19.01 3.37,-0.4 6.73,-0.79 10.11,-1.2 87.81,-18.79 144.82,-26.14 181.84,-28.07 35.61,-9.34 70.31,-21.13 102.81,-36.61 16.22,-7.72 31.26,-16.38 45.77,-25.5 l 0.45,-93.82 -167.4,-1593.58 H 8709.1 v -16.22 h -0.79 l -150.92,1068.9 -0.63,6.02 -82.68,-1074.92 h -0.79 v 16.22 h -137.93 l -174.94,1197 6.26,542.77" /><path
         id="path142"
         style="fill:#292949;fill-opacity:1;fill-rule:nonzero;stroke:none"
         d="m 8846.36,1212.73 h 10.18 l 73.72,-73.72 -73.72,-73.72 -147.44,73.72 v 57.5 h 135.55 l 1.71,16.22" /><path
         id="path144"
         style="fill:#292949;fill-opacity:1;fill-rule:nonzero;stroke:none"
         d="m 8846.36,1212.73 -1.71,-16.22 H 8709.1 v 16.22 h 137.26" /><path
         id="path146"
         style="fill:#ffffff;fill-opacity:1;fill-rule:nonzero;stroke:none"
         d="m 8243.73,2999.42 c 0,0 86.79,-2.05 212.36,-11.41 7.77,-0.58 15.69,-1.19 23.75,-1.83 58.52,-4.63 124.29,-10.81 192.94,-19 3.37,-0.41 6.73,-0.8 10.11,-1.21 87.81,-18.79 144.82,-26.14 181.84,-28.07 59.87,-3.12 67.32,7.97 67.32,7.97 0,0 -54.02,216.94 -91.94,405.65 -19.55,97.26 -34.82,187.02 -36.22,235.7 -4.21,146.41 -22.95,629.97 -22.95,629.97 l -90.89,184.95 -16.76,-0.16 c -23.18,-2.74 -46.34,-5.48 -69.51,-8.22 -5.98,-0.71 -12.19,-1.39 -17.93,0.49 -2.87,0.95 -5.37,2.43 -7.52,4.3 l -2.45,2.5 -70.07,-0.67 c 0,0 -197.72,-690.95 -204.98,-810.03 -2.77,-45.27 -11.95,-144.09 -22.17,-248.19 -16.17,-164.75 -34.93,-342.74 -34.93,-342.74" /><path
         id="path148"
         style="fill:#e1cfb5;fill-opacity:1;fill-rule:nonzero;stroke:none"
         d="m 8453.15,4656.58 c 4.56,18.65 -4.19,37.63 -8.33,56.39 -1.05,4.74 -1.24,9.63 -0.95,14.58 33.3,5.76 66.92,18.13 91.39,28.81 50.95,22.24 150.16,45.93 203.07,19.66 41.82,-20.77 28.98,-87 26.87,-128.89 -0.54,-10.77 -1.37,-21.73 1.11,-32.2 2.55,-10.78 9.26,-18.06 13.44,-27.13 -4.66,-16.32 -12.3,-31.82 -24.74,-45.87 -33.52,-37.84 -67.62,-56.45 -76.67,-99.17 -2.42,-11.46 -3.14,-24.56 -1.44,-40.35 -1.2,-0.14 -2.41,-0.29 -3.61,-0.43 -23.18,-2.74 -46.34,-5.48 -69.51,-8.22 -5.98,-0.71 -12.19,-1.39 -17.93,0.49 -2.87,0.95 -5.37,2.43 -7.52,4.3 l -2.45,2.5 c -6.39,7.33 -9.28,18.53 -10.51,28.64 -0.29,2.32 -0.75,4.53 -1.25,6.7 -9.07,38.99 -52.13,56.55 -75.34,91.14 -26.29,39.19 -40.06,84.87 -46.01,131.38 l -0.3,2.38 c 3.4,-1.86 6.96,-3.45 10.68,-4.71" /><path
         id="path150"
         style="fill:#292949;fill-opacity:1;fill-rule:nonzero;stroke:none"
         d="m 8286.66,4877.72 c -1.52,-48.01 34.76,-125.99 79.38,-145.55 8.66,-3.81 18.27,-6.04 28.41,-7.12 9.38,-26.03 25.09,-51.23 48.02,-63.76 3.4,-1.86 6.96,-3.45 10.68,-4.71 4.56,18.65 -4.19,37.63 -8.33,56.39 -1.05,4.74 -1.24,9.63 -0.95,14.58 33.3,5.76 66.92,18.13 91.39,28.81 50.95,22.24 150.16,45.93 203.07,19.66 41.82,-20.77 28.98,-87 26.87,-128.89 -0.54,-10.77 -1.37,-21.73 1.11,-32.2 2.55,-10.78 9.26,-18.06 13.44,-27.13 1.47,-3.17 2.63,-6.54 3.18,-10.37 34.25,15.38 54.97,54 74.32,85.4 9.67,15.7 18.72,32.1 25.84,49.93 31.82,79.67 20.1,187.07 -28.76,263.45 -14.1,22.05 -31.29,41.84 -51.48,54.16 -48.35,29.5 -115.68,32.21 -167.78,52.43 -73.29,28.45 -110.53,2.8 -179.72,-19.42 -27.66,-8.89 -59.46,-16.6 -74.1,-42.8 -8.09,-14.47 -9.29,-32.33 -17.46,-46.76 -10.51,-18.58 -30.47,-28.28 -47.79,-39.97 -20.08,-13.57 -28.64,-33.65 -29.34,-56.13" /><path
         id="path152"
         style="fill:#e1cfb5;fill-opacity:1;fill-rule:nonzero;stroke:none"
         d="m 9585.99,4917.12 17.94,121.18 -51.45,9.92 -30.67,-80.26 -22.16,15.99 -2.71,-105.57 52.1,-17.54 36.95,56.28" /><path
         id="path154"
         style="fill:#3b3387;fill-opacity:1;fill-rule:nonzero;stroke:none"
         d="m 8807.61,4287.5 463.54,120.6 214.72,506.34 101.6,-40.09 -121.01,-653.99 -533.98,-275.05 -124.87,342.19" /><path
         id="path156"
         style="fill:#292949;fill-opacity:1;fill-rule:nonzero;stroke:none"
         d="m 7695.71,1177.82 6.47,-63.7 -120.92,-76.64 -70.16,57.22 57.22,70.17 120.91,76.64 6.48,-63.69" /><path
         id="path158"
         style="fill:#292949;fill-opacity:1;fill-rule:nonzero;stroke:none"
         d="m 7700.39,3120.9 19.66,-193.45 -172.72,-864.48 152.96,-863.95 -123.77,-38.11 -400.23,1027.22 -21.95,314.03 54.21,650.53 491.84,-31.79" /><path
         id="path160"
         style="fill:#292949;fill-opacity:1;fill-rule:nonzero;stroke:none"
         d="m 6762.32,3055.04 -3.98,-817.23 161.07,-1052.59 118.41,0.8 68.26,972.69 155.51,973.27 -499.27,-76.94" /><path
         id="path162"
         style="fill:#292949;fill-opacity:1;fill-rule:nonzero;stroke:none"
         d="m 7037.47,1136.08 -127.61,-64.88 -64.45,63.59 63.59,64.45 128.04,0.86 0.43,-64.02" /><path
         id="path164"
         style="fill:#dddae8;fill-opacity:1;fill-rule:nonzero;stroke:none"
         d="m 6662.53,3174.98 c 85.42,264.6 94.53,542.45 119.37,818.1 7.37,81.32 15.19,164.45 49.04,238.76 38.88,85.33 103.15,130.37 178.01,154.97 95.3,31.32 207.76,29.52 306.85,35.56 94.01,2.96 177.17,-350.46 273.07,-521.78 58.77,-104.99 119.34,-197.85 158.98,-312.38 38.04,-109.91 74.58,-221.76 96.72,-336.13 33.41,-172.66 118.88,-293.23 37.25,-351.97 -7.48,-2.47 -14.69,-4.92 -21.52,-7.37 -133.91,-47.97 -272.46,-83.47 -413.55,-102.1 -125.15,-16.51 -252.27,-19.52 -377.95,-7.13 -172.02,16.95 -338.7,41.25 -490.35,130.97 28.03,86.83 56.06,173.66 84.08,260.5" /><path
         id="path166"
         style="fill:#474ebb;fill-opacity:1;fill-rule:nonzero;stroke:none"
         d="m 6009.14,4643.91 529.66,264.88 978.63,-1956.92 -529.66,-264.88 -978.63,1956.92" /><path
         id="path168"
         style="fill:#e1cfb5;fill-opacity:1;fill-rule:nonzero;stroke:none"
         d="m 6538.8,4908.79 -501.35,340.54 -28.31,-605.42 z" /><path
         id="path170"
         style="fill:#292949;fill-opacity:1;fill-rule:nonzero;stroke:none"
         d="m 6225.55,5121.56 -188.1,127.77 -10.63,-227.15 z" /><path
         id="path172"
         style="fill:#b5b7b8;fill-opacity:1;fill-rule:nonzero;stroke:none"
         d="m 7190.29,2458.05 393.25,196.65 c 37.67,18.84 52.93,64.66 34.09,102.33 l -100.2,194.84 -529.66,-264.88 100.19,-194.84 c 18.85,-37.67 64.66,-52.94 102.33,-34.1" /><path
         id="path174"
         style="fill:#ffffff;fill-opacity:1;fill-rule:nonzero;stroke:none"
         d="m 6987.77,2686.99 529.66,264.88 -49.53,99.05 -531.73,-260.76 51.6,-103.17" /><path
         id="path176"
         style="fill:#a39372;fill-opacity:1;fill-rule:nonzero;stroke:none"
         d="m 7345.29,3349.35 -96.08,-85.34 -38.26,39.48 52.85,73 -26.75,10.28 91.11,63.01 45.31,-35.67 -28.18,-64.76" /><path
         id="path178"
         style="fill:#dddae8;fill-opacity:1;fill-rule:nonzero;stroke:none"
         d="m 7370.47,4067.21 165.93,-198.06 -246.25,-430.37 93.54,-66.17 504.64,481.79 -392.64,556.68 -125.22,-343.87" /><path
         id="path180"
         style="fill:#a39372;fill-opacity:1;fill-rule:nonzero;stroke:none"
         d="m 7361.79,4685.41 c -53.55,161.68 -289.52,217.99 -344.37,30.08 -16.49,-56.47 -26.41,-116.38 -15.2,-174.13 11.21,-57.75 46.5,-113.16 100.35,-136.83 l 0.93,-0.38 c -2.11,-14.99 -4.21,-29.98 -6.31,-44.97 -0.46,-3.22 -0.84,-6.77 0.98,-9.47 2.06,-3.07 6.15,-3.88 9.81,-4.43 17.89,-2.67 35.78,-5.34 53.68,-8.01 8.86,-1.32 18.1,-2.62 26.65,0.12 18.69,5.98 26.46,28.38 27.28,47.99 0.2,4.69 0.15,9.43 0.08,14.18 105.88,36.27 181.13,180.15 146.12,285.85" /><path
         id="path182"
         style="fill:#292949;fill-opacity:1;fill-rule:nonzero;stroke:none"
         d="m 7074.31,4961.5 c -43.2,6.42 -80,-35.47 -119.86,-57.47 -33.17,-18.3 -70.76,-23.16 -105.14,-38.32 -34.37,-15.18 -68.16,-46.83 -68.89,-86.47 -34.83,18.13 -72.56,36.72 -111.59,29.2 -39.03,-7.52 -75.27,-54.12 -59.71,-92.53 13.92,-34.4 58.8,-42.5 73.72,-76.36 23.62,-53.56 -40.23,-136.74 3.34,-172.26 10.48,-8.54 24.73,-10.61 35.03,-19.4 12.78,-10.92 16.88,-29.67 22.57,-46.35 25.8,-75.58 101.99,-124.95 177.24,-114.85 46.79,21.93 84.1,67.21 100.82,119.06 20.15,62.49 -13.29,84.31 -18.92,142.97 -6.18,64.11 14.21,132.01 54.58,181.8 26.26,32.4 63.85,60.32 103.57,64.11 16.14,1.54 11.06,-11.93 29.23,0.57 7.8,5.36 18.44,25.63 20.65,35.36 -43.46,34.95 -79.79,122.48 -136.64,130.94" /><path
         id="path184"
         style="fill:#292949;fill-opacity:1;fill-rule:nonzero;stroke:none"
         d="m 7541.61,4878.37 c 22.28,-6.2 46.48,-5.3 67.72,-14.61 31.9,-13.98 29.96,-47.08 38.99,-75.84 10,-31.84 24.53,-74.58 45.52,-99.34 15.13,-17.84 36.31,-28.01 54.75,-41.78 18.44,-13.77 35.38,-34.1 34.99,-58.92 -0.37,-23.51 -16.18,-44.63 -18.5,-68.11 -2.82,-35.01 3.24,-52.94 -7.56,-88.73 -5.56,-18.46 -11.8,-38.02 -25.66,-50.61 -18.26,-16.6 -44.28,-16.28 -67.13,-12.46 -22.84,3.82 -46.45,10.16 -68.98,2.58 -48.86,-16.43 -39.74,-65.85 -52.75,-107.27 -19.79,-63.02 -92.87,-99.8 -148.78,-77.39 -47.4,19 -74.84,74.04 -72.69,128.38 1.07,27.2 11.9,52.55 12.68,79.78 0.77,26.26 -14.04,62.62 9.76,83.46 5.8,5.08 13.23,7.76 18.44,13.54 4.22,4.68 6.55,10.95 8.01,17.21 5.07,21.7 0.3,45.37 -12.5,61.99 -9.19,11.94 -22.38,20.67 -28.01,35.07 -6.46,16.51 -1.35,35.82 -0.26,54.06 2.65,44.1 -21.47,87.35 -58.21,104.38 -24.21,11.22 -46.02,17.84 -67.18,34.91 -3.22,2.6 -51.36,45.15 -52.6,35.96 2.15,15.99 11.5,30 20.96,42.84 15.56,21.1 32.83,41.66 54.75,54.3 70.86,40.88 74.29,-54.12 131.17,-41.62 13.72,3.01 24.05,15.59 36.4,23.1 23.33,14.18 51.98,9.11 75.84,-1.52 23.85,-10.63 45.72,-26.37 70.83,-33.36" /><path
         id="path186"
         style="fill:#a39372;fill-opacity:1;fill-rule:nonzero;stroke:none"
         d="m 6605.42,3397.35 69.84,14.92 87.56,-67.06 -66.15,-77.17 -66.16,54.08 -25.09,75.23" /><path
         id="path188"
         style="fill:#292949;fill-opacity:1;fill-rule:nonzero;stroke:none"
         d="m 1256.45,5849.11 c 79.84,-10.72 257.12,-53.86 356.12,-122.46 1.72,-1.96 3.64,-3.7 5.37,-5.62 l 361.58,322.24 c -62.64,29.94 -271.97,115.07 -486.66,33.12 -256.41,-97.86 -332.45,-214.38 -236.41,-227.28" /></g></g></svg>