<?xml version="1.0" standalone="no"?>
<!DOCTYPE svg PUBLIC "-//W3C//DTD SVG 20010904//EN"
 "http://www.w3.org/TR/2001/REC-SVG-20010904/DTD/svg10.dtd">
<svg version="1.0" xmlns="http://www.w3.org/2000/svg"
 width="2000.000000pt" height="2000.000000pt" viewBox="0 0 2000.000000 2000.000000"
 preserveAspectRatio="xMidYMid meet">

<g transform="translate(0.000000,2000.000000) scale(0.100000,-0.100000)"
fill="#000000" stroke="none">
<path d="M12906 15214 c-60 -22 -126 -81 -152 -138 l-24 -51 0 -1013 c0 -918
1 -1013 16 -1019 11 -4 84 62 258 236 l241 241 950 0 c934 0 951 1 995 21 60
27 107 74 136 134 l24 50 0 675 c0 768 5 722 -87 807 -85 78 -6 73 -1227 72
-919 0 -1097 -3 -1130 -15z m1247 -243 c85 -52 126 -122 127 -212 0 -74 -15
-116 -59 -162 -67 -72 -151 -99 -239 -77 -112 26 -182 119 -182 239 0 105 57
186 163 232 38 16 151 4 190 -20z m-524 -219 c84 -51 115 -166 70 -259 -70
-145 -294 -145 -360 1 -86 189 113 365 290 258z m1040 0 c85 -52 116 -165 70
-259 -70 -145 -294 -145 -360 1 -85 188 113 365 290 258z m-496 -332 c61 -23
146 -98 166 -149 l13 -30 37 29 c102 81 259 73 365 -20 47 -42 73 -92 85 -166
13 -85 14 -310 1 -334 -11 -20 -19 -20 -800 -20 -770 0 -790 0 -800 19 -5 11
-10 85 -10 167 0 199 14 249 89 325 47 46 67 58 120 73 44 12 78 16 110 11 55
-8 128 -38 156 -65 20 -19 21 -19 34 12 16 36 93 113 133 134 89 47 200 52
301 14z"/>
<path d="M9930 14524 c-19 -2 -78 -9 -130 -15 -326 -36 -763 -163 -1068 -310
-243 -116 -393 -218 -535 -362 -318 -323 -453 -842 -348 -1332 28 -128 64
-231 130 -375 89 -190 148 -374 167 -517 3 -29 10 -53 13 -53 4 0 20 14 37 31
58 62 108 89 164 89 58 0 118 -26 149 -66 27 -34 28 -37 50 -202 11 -79 22
-146 24 -149 21 -20 136 106 183 202 36 73 37 76 30 157 -4 46 -9 92 -12 104
-5 20 0 22 78 28 46 4 110 14 143 22 33 9 116 19 185 23 86 6 143 14 183 29
66 24 140 74 171 115 18 24 19 31 8 60 -12 31 -11 33 35 71 89 73 269 260 353
366 89 112 216 300 277 407 27 49 39 63 45 52 5 -8 32 -54 60 -104 61 -108
150 -234 235 -331 l61 -71 -48 -23 c-27 -13 -65 -40 -86 -61 -30 -30 -35 -42
-30 -64 9 -37 49 -53 78 -31 71 52 114 75 148 81 36 6 44 3 87 -34 70 -58 201
-135 286 -165 l73 -27 16 -114 c9 -62 24 -127 32 -144 23 -43 56 -71 84 -71
23 0 24 3 18 38 -26 153 -18 209 36 259 26 25 95 56 107 49 4 -3 53 64 108
147 202 302 303 518 311 662 3 69 0 90 -22 150 -131 346 -723 1157 -892 1221
-88 34 -199 4 -299 -80 l-40 -34 -107 108 c-179 181 -305 257 -438 264 -41 2
-91 2 -110 0z"/>
<path d="M10683 11925 c-17 -7 -39 -28 -49 -47 -15 -29 -16 -42 -5 -128 7 -52
20 -110 28 -128 40 -84 167 -82 207 3 17 34 17 42 1 138 -20 119 -26 132 -68
157 -37 23 -70 25 -114 5z"/>
<path d="M9309 11715 c-15 -8 -34 -31 -44 -51 -17 -35 -17 -43 -1 -138 19
-113 32 -140 80 -163 65 -31 148 11 161 81 7 36 -20 209 -37 236 -29 46 -107
63 -159 35z"/>
<path d="M11525 11496 c-16 -24 -16 -29 14 -118 57 -172 91 -367 91 -520 0
-71 -16 -51 -23 29 -8 101 -52 303 -93 433 -20 63 -37 116 -39 118 -1 2 -29
-11 -61 -27 -33 -17 -66 -32 -75 -35 -13 -3 -17 -26 -23 -118 -3 -62 -15 -156
-26 -208 -11 -52 -20 -97 -20 -99 0 -2 7 2 15 9 12 10 16 8 24 -11 5 -13 22
-53 39 -89 180 -393 183 -404 160 -617 -8 -68 -11 -123 -7 -123 11 0 58 134
88 250 16 63 34 129 41 145 62 161 70 446 20 678 -21 96 -86 306 -100 321 -5
4 -16 -3 -25 -18z"/>
<path d="M8038 11113 c-187 -392 -297 -760 -333 -1111 -20 -206 -11 -932 12
-932 3 0 26 17 52 39 97 81 258 173 410 235 l62 25 9 -24 c25 -66 44 -267 44
-470 -1 -250 -16 -393 -85 -805 -46 -267 -69 -416 -85 -537 l-5 -43 -725 0
c-589 0 -731 -3 -757 -14 -42 -17 -85 -68 -92 -109 -4 -19 25 -237 69 -532 42
-275 89 -592 105 -705 17 -113 44 -295 60 -405 17 -110 84 -558 150 -996 66
-438 127 -814 136 -835 9 -22 28 -51 42 -66 l27 -28 -176 0 c-101 0 -189 -5
-205 -11 -56 -21 -103 -80 -118 -146 l-7 -33 2299 -2 2298 -3 3 -302 2 -303
-3372 -2 -3373 -3 3 -35 c5 -52 53 -131 101 -165 l43 -30 5356 -3 5356 -2 43
21 c23 11 56 37 72 57 31 40 65 127 57 149 -4 10 -38 13 -146 13 l-140 0 0
295 c0 277 1 296 20 327 24 40 25 66 4 96 -13 19 -24 22 -75 22 -32 0 -59 2
-59 4 0 3 24 39 54 81 30 41 57 83 60 93 5 13 18 17 63 18 122 3 244 79 301
189 24 44 27 61 27 150 0 84 -4 107 -23 146 -49 99 -165 183 -270 196 l-52 6
0 51 c0 29 -5 57 -12 64 -18 18 -1017 17 -1042 -1 -16 -12 -17 -39 -14 -367 3
-345 4 -357 26 -410 28 -64 109 -189 128 -197 30 -11 -1 -23 -60 -23 -48 0
-67 -4 -79 -18 -21 -23 -22 -61 -1 -90 l15 -22 -315 0 -316 0 0 -305 0 -305
-280 0 -280 0 0 305 0 305 165 0 c165 0 165 0 165 23 -1 39 -37 104 -76 133
l-37 29 -195 5 c-170 4 -193 7 -178 19 9 8 28 33 41 56 21 36 37 124 119 671
52 346 167 1108 256 1694 88 586 160 1081 160 1100 0 52 -30 102 -75 127 l-40
23 -1041 0 -1041 0 -38 133 c-20 72 -67 242 -105 377 -37 135 -70 254 -74 266
-6 20 -2 21 67 27 135 10 348 96 442 179 l45 40 19 -44 c17 -40 19 -41 24 -18
3 14 8 57 12 95 16 187 94 477 163 607 4 8 -38 27 -266 120 -95 39 -176 68
-180 64 -4 -4 -7 -71 -7 -149 0 -150 2 -159 78 -324 13 -29 -8 -62 -68 -103
-93 -64 -215 -103 -355 -116 l-76 -6 -23 83 c-13 46 -27 87 -30 91 -3 4 -31
-24 -61 -63 -119 -153 -297 -298 -427 -349 -32 -13 -62 -27 -68 -31 -23 -17
-170 -39 -259 -39 -229 0 -508 97 -689 240 -164 129 -273 289 -402 590 -70
164 -110 244 -152 301 l-42 57 72 16 c131 28 510 105 610 123 l97 18 -2 168
-3 168 -60 20 c-33 11 -105 42 -160 69 -310 150 -565 432 -680 753 -37 102
-28 97 -133 79 -122 -21 -263 27 -344 116 -24 27 -47 48 -52 48 -9 -1 -56
-130 -206 -571 -78 -228 -148 -468 -171 -585 -6 -33 -13 -59 -16 -57 -2 2 1
49 7 103 35 332 134 671 301 1040 58 126 59 131 46 168 l-13 38 -56 -119z
m2069 -5458 c111 -12 270 -96 333 -175 l31 -39 -86 -58 c-47 -32 -228 -156
-403 -275 -174 -120 -324 -217 -333 -218 -26 0 -108 95 -140 164 -74 159 -37
330 98 457 92 85 203 136 328 149 58 6 84 5 172 -5z m206 -626 c62 -33 116
-64 120 -68 13 -13 -90 -99 -158 -131 -98 -47 -184 -63 -300 -57 -100 5 -179
24 -174 42 3 11 379 274 392 274 4 1 58 -26 120 -60z m4130 -409 c21 -20 22
-30 25 -208 4 -207 -3 -239 -58 -262 -33 -14 -92 7 -109 38 -7 13 -11 93 -11
207 0 158 3 191 17 216 26 44 93 48 136 9z m931 -150 c73 -27 126 -110 126
-195 0 -109 -69 -189 -182 -209 l-38 -7 0 217 0 216 36 -7 c20 -3 46 -10 58
-15z m-3174 -1165 l0 -305 -165 0 -165 0 0 305 0 305 165 0 165 0 0 -305z
m680 0 l0 -305 -170 0 -170 0 0 305 0 305 170 0 170 0 0 -305z m1990 -5 l0
-300 -267 2 -268 3 -3 298 -2 297 270 0 270 0 0 -300z"/>
<path d="M11211 10794 c-26 -65 -100 -200 -140 -254 -14 -19 -59 -75 -100
-125 -42 -49 -68 -86 -57 -82 74 28 96 20 244 -85 63 -46 118 -82 121 -81 6 2
14 32 52 200 l21 93 -55 177 c-31 98 -57 187 -59 197 -2 12 -12 -2 -27 -40z"/>
<path d="M3980 10450 c-8 -5 -30 -14 -48 -20 -18 -7 -49 -33 -70 -59 -74 -90
-70 -44 -74 -761 l-3 -645 33 -56 c35 -61 84 -105 141 -125 28 -10 232 -13
946 -14 l910 0 231 -231 c167 -166 237 -230 248 -226 15 6 16 96 16 968 0 723
-3 972 -12 1003 -17 56 -109 148 -165 164 -31 9 -290 12 -1090 11 -576 0
-1055 -4 -1063 -9z m1055 -305 l303 -155 194 0 c191 0 194 0 253 -28 197 -93
243 -364 88 -519 -22 -22 -60 -50 -85 -62 l-46 -22 -4 -182 c-3 -205 -11 -232
-72 -261 -70 -33 -150 -13 -186 47 -18 29 -20 51 -20 210 l0 177 -70 0 -69 0
-301 -151 c-266 -134 -304 -150 -335 -145 -68 13 -65 -11 -65 622 l0 571 26
27 c17 16 38 26 57 26 19 0 141 -57 332 -155z m-639 9 c75 -37 138 -73 141
-80 3 -8 2 -25 -1 -39 -10 -40 -56 -31 -196 39 -113 56 -125 65 -128 91 -4 27
17 55 41 55 4 0 69 -30 143 -66z m-27 -272 c164 -30 179 -37 167 -85 -6 -24
-11 -27 -49 -26 -23 0 -109 12 -191 27 -159 29 -174 37 -162 85 8 35 32 35
235 -1z m152 -302 c25 -14 26 -66 2 -79 -10 -5 -95 -22 -190 -37 -143 -23
-174 -26 -187 -15 -19 16 -21 54 -3 69 10 8 282 63 350 71 5 1 17 -4 28 -9z
m0 -240 c12 -7 19 -21 19 -40 0 -28 -7 -33 -120 -90 -66 -33 -128 -60 -138
-60 -26 0 -42 20 -42 52 0 29 5 32 215 129 48 22 42 21 66 9z"/>
<path d="M4710 9680 c0 -342 3 -520 10 -520 6 0 141 65 300 145 180 90 301
145 320 145 l30 0 0 225 0 225 -32 0 c-28 0 -266 114 -546 262 -40 21 -75 38
-77 38 -3 0 -5 -234 -5 -520z"/>
<path d="M5450 9675 l0 -225 60 0 60 0 0 225 0 225 -60 0 -60 0 0 -225z"/>
<path d="M5650 9675 l0 -225 30 0 c65 0 151 70 180 144 16 43 12 127 -9 171
-32 69 -120 135 -181 135 -20 0 -20 -5 -20 -225z"/>
<path d="M10603 9825 c-9 -25 4 -29 17 -6 7 15 7 21 0 21 -6 0 -13 -7 -17 -15z"/>
<path d="M5933 5955 c-236 -123 -489 -607 -634 -1215 -12 -52 -29 -100 -37
-107 -11 -9 -100 -12 -331 -13 -309 0 -316 0 -333 -21 -16 -18 -18 -43 -18
-176 0 -161 6 -188 43 -202 19 -8 32 -47 101 -315 l79 -306 406 0 406 0 80
306 c74 284 81 307 106 320 15 7 29 21 33 29 3 9 6 86 6 171 0 189 -3 194
-105 194 -36 0 -65 3 -65 6 0 8 144 239 212 341 26 40 48 75 48 78 0 3 15 26
34 52 18 27 76 120 129 208 116 194 148 280 155 416 6 122 -12 182 -69 233
-37 34 -43 36 -108 36 -60 0 -79 -5 -138 -35z m177 -111 c0 -4 -31 -52 -68
-108 -190 -283 -355 -580 -493 -886 -88 -196 -89 -197 -89 -209 0 -6 -9 -11
-20 -11 -11 0 -20 2 -20 4 0 20 123 289 206 454 179 351 432 762 469 762 8 0
15 -3 15 -6z"/>
</g>
</svg>
