<?xml version="1.0" standalone="no"?>
<!DOCTYPE svg PUBLIC "-//W3C//DTD SVG 20010904//EN"
 "http://www.w3.org/TR/2001/REC-SVG-20010904/DTD/svg10.dtd">
<svg version="1.0" xmlns="http://www.w3.org/2000/svg"
 width="512.000000pt" height="512.000000pt" viewBox="0 0 512.000000 512.000000"
 preserveAspectRatio="xMidYMid meet">

<g transform="translate(0.000000,512.000000) scale(0.100000,-0.100000)"
fill="#000000" stroke="none">
<path d="M3665 4213 c-89 -8 -276 -44 -379 -73 -532 -150 -1037 -529 -1457
-1096 l-68 -91 -70 -7 c-147 -15 -289 -70 -406 -159 -33 -25 -133 -119 -222
-209 -153 -154 -163 -167 -163 -202 0 -28 7 -45 29 -67 34 -34 71 -37 166 -14
33 9 111 18 174 22 l113 6 -72 -142 c-57 -112 -70 -148 -65 -169 3 -15 47 -68
96 -118 l91 -91 -57 -82 c-150 -221 -213 -424 -150 -486 65 -66 271 -3 492
151 l78 54 95 -94 c52 -52 107 -98 121 -101 20 -5 57 9 159 60 73 36 135 64
138 60 3 -3 0 -65 -7 -138 -27 -283 -28 -270 9 -300 21 -18 43 -27 68 -27 33
0 49 13 200 162 90 90 184 191 208 225 84 116 138 264 147 402 l5 64 118 90
c185 139 278 220 419 362 271 272 468 560 589 862 106 264 156 526 156 808 -1
284 -16 320 -136 335 -66 9 -335 11 -419 3z m308 -189 l46 -7 7 -74 c8 -87
-10 -308 -34 -438 -21 -105 -16 -103 -131 -47 -155 77 -330 253 -405 405 -54
113 -56 109 49 129 155 31 369 45 468 32z m-743 -127 c0 -6 20 -52 44 -102
109 -225 315 -427 540 -530 41 -19 79 -35 85 -35 17 0 14 -15 -20 -98 -155
-389 -488 -788 -944 -1132 -169 -127 -500 -340 -528 -340 -7 0 -50 37 -95 83
l-82 83 26 34 c71 96 94 178 94 339 0 105 -1 109 -27 136 l-28 27 -135 -4
c-153 -5 -216 -23 -297 -85 l-46 -35 -83 83 -84 83 32 56 c53 95 178 288 258
400 347 485 738 825 1155 1006 117 51 135 55 135 31z m-1685 -1281 c-62 -106
-70 -115 -92 -110 -14 4 -58 7 -99 8 -41 0 -74 2 -74 3 0 8 132 124 166 145
45 28 156 77 163 72 2 -2 -27 -55 -64 -118z m79 -455 l59 -59 -64 -71 c-35
-39 -66 -71 -69 -71 -3 0 -25 20 -49 44 l-44 44 47 86 c26 47 50 86 54 86 4 0
34 -27 66 -59z m532 -43 c-4 -29 -16 -72 -27 -94 -32 -68 -292 -311 -465 -436
-91 -65 -214 -141 -220 -136 -6 6 92 162 152 244 98 134 322 380 388 427 33
23 104 45 150 46 l29 1 -7 -52z m1 -490 c35 -34 63 -66 63 -70 0 -4 -39 -27
-87 -52 l-88 -46 -50 50 -49 50 69 64 c39 36 72 65 75 66 2 0 33 -28 67 -62z
m549 -81 c-32 -85 -69 -143 -139 -216 -32 -34 -60 -61 -63 -61 -2 0 -4 47 -4
104 l0 105 108 65 c59 36 110 65 114 66 4 0 -3 -28 -16 -63z"/>
<path d="M2935 3489 c-159 -27 -300 -131 -365 -271 -181 -387 193 -806 596
-668 333 115 437 536 195 794 -103 110 -280 170 -426 145z m203 -218 c171 -88
213 -309 87 -459 -14 -17 -53 -45 -87 -61 -84 -43 -167 -43 -253 -2 -103 49
-157 129 -163 243 -11 180 123 314 303 305 47 -3 84 -11 113 -26z"/>
</g>
</svg>
