<?xml version="1.0" standalone="no"?>
<!DOCTYPE svg PUBLIC "-//W3C//DTD SVG 20010904//EN"
 "http://www.w3.org/TR/2001/REC-SVG-20010904/DTD/svg10.dtd">
<svg version="1.0" xmlns="http://www.w3.org/2000/svg"
 width="512.000000pt" height="512.000000pt" viewBox="0 0 512.000000 512.000000"
 preserveAspectRatio="xMidYMid meet">

<g transform="translate(0.000000,512.000000) scale(0.100000,-0.100000)"
fill="#000000" stroke="none">
<path d="M1073 4770 c-14 -6 -37 -39 -62 -87 -141 -281 -1011 -2108 -1011
-2123 0 -24 1033 -2177 1055 -2199 14 -14 160 -16 1505 -16 1345 0 1491 2
1505 16 22 22 1055 2175 1055 2199 0 24 -1033 2177 -1055 2199 -14 14 -161 16
-1493 18 -854 1 -1486 -2 -1499 -7z m3011 -560 c120 -15 135 -51 136 -335 0
-282 -50 -544 -156 -808 -178 -445 -510 -847 -1008 -1224 l-118 -90 -5 -64
c-9 -138 -63 -286 -147 -402 -24 -34 -118 -135 -208 -225 -151 -149 -167 -162
-200 -162 -25 0 -47 9 -68 27 -37 30 -36 17 -9 300 7 73 10 135 7 138 -3 4
-65 -24 -138 -60 -102 -51 -139 -65 -159 -60 -14 3 -69 49 -121 101 l-95 94
-78 -54 c-139 -97 -304 -172 -387 -176 -65 -4 -81 0 -105 25 -63 62 0 265 150
486 l57 82 -91 91 c-49 50 -93 103 -96 118 -5 21 8 57 65 169 l72 142 -113 -6
c-63 -4 -141 -13 -174 -22 -95 -23 -132 -20 -166 14 -22 22 -29 39 -29 67 0
35 11 48 168 207 92 93 194 188 227 212 121 86 253 137 396 151 l70 7 68 91
c420 567 925 946 1457 1096 103 29 290 65 379 73 84 8 353 6 419 -3z"/>
<path d="M3685 4019 c-50 -5 -131 -17 -180 -27 -105 -20 -103 -16 -49 -129 75
-152 250 -328 405 -405 115 -56 110 -58 131 47 24 130 42 351 34 438 l-7 74
-46 7 c-58 8 -173 6 -288 -5z"/>
<path d="M3095 3866 c-417 -181 -808 -521 -1155 -1006 -80 -112 -205 -305
-258 -400 l-32 -56 84 -83 83 -83 46 35 c81 62 144 80 297 85 l135 4 28 -27
c26 -27 27 -31 27 -136 0 -161 -23 -243 -94 -339 l-26 -34 82 -83 c45 -46 88
-83 95 -83 29 0 357 212 533 344 448 336 785 741 939 1128 34 83 37 98 20 98
-6 0 -44 16 -85 35 -225 103 -431 305 -540 530 -24 50 -44 96 -44 102 0 24
-18 20 -135 -31z m69 -398 c196 -64 327 -245 328 -453 1 -135 -40 -241 -130
-337 -189 -202 -500 -206 -696 -10 -184 183 -190 482 -15 667 139 147 324 195
513 133z"/>
<path d="M2917 3286 c-90 -33 -158 -104 -188 -193 -17 -53 -8 -160 20 -213 33
-65 68 -99 136 -131 146 -70 312 -13 387 135 68 134 5 316 -134 387 -54 28
-166 36 -221 15z"/>
<path d="M1538 2710 c-82 -35 -121 -61 -198 -134 -33 -32 -60 -58 -60 -59 0
-1 33 -3 74 -3 41 -1 85 -4 99 -8 22 -5 30 4 92 110 37 63 66 116 64 118 -2 2
-34 -9 -71 -24z"/>
<path d="M1504 2134 l-47 -86 44 -44 c24 -24 46 -44 49 -44 3 0 34 32 69 71
l64 71 -59 59 c-32 32 -62 59 -66 59 -4 0 -28 -39 -54 -86z"/>
<path d="M2059 2156 c-59 -16 -86 -36 -190 -143 -106 -108 -200 -218 -272
-315 -61 -84 -159 -240 -153 -246 6 -5 129 71 220 136 173 125 433 368 465
436 11 22 23 65 27 94 l7 52 -29 -1 c-16 0 -50 -6 -75 -13z"/>
<path d="M2015 1624 l-69 -64 49 -50 50 -50 88 46 c48 25 87 48 87 52 0 8
-123 132 -130 132 -3 -1 -36 -30 -75 -66z"/>
<path d="M2608 1544 l-108 -65 0 -105 c0 -57 2 -104 4 -104 11 0 124 127 150
168 31 51 80 172 68 172 -4 -1 -55 -30 -114 -66z"/>
</g>
</svg>
