<?xml version="1.0"?>
<svg xmlns="http://www.w3.org/2000/svg" xmlns:xlink="http://www.w3.org/1999/xlink" version="1.1" id="Layer_1" x="0px" y="0px" viewBox="0 0 512 512" style="enable-background:new 0 0 512 512;" xml:space="preserve" width="512px" height="512px" class=""><g><path style="fill:#305399" d="M405.29,504.115H106.71c-17.42,0-31.54-14.12-31.54-31.54V39.425c0-17.42,14.12-31.54,31.54-31.54  H405.29c17.42,0,31.54,14.12,31.54,31.54v433.15C436.83,489.995,422.709,504.115,405.29,504.115z" data-original="#808080" class="" data-old_color="#808080"/><path style="fill:#16336E" d="M102.505,472.575V39.425c0-17.42,14.12-31.54,31.54-31.54H106.71c-17.42,0-31.54,14.12-31.54,31.54  v433.15c0,17.42,14.12,31.54,31.54,31.54h27.335C116.626,504.115,102.505,489.995,102.505,472.575z" data-original="#666666" class="" data-old_color="#666666"/><path style="fill:#AFF078;" d="M374.801,169.791H137.199c-8.709,0-15.77-7.061-15.77-15.77V59.4c0-8.709,7.061-15.77,15.77-15.77  h237.602c8.709,0,15.77,7.061,15.77,15.77v94.62C390.571,162.73,383.51,169.791,374.801,169.791z" data-original="#AFF078" class=""/><g>
	<polygon style="fill:#FFFFFF;" points="170.842,43.63 121.429,93.043 121.429,112.493 190.292,43.63  " data-original="#FFFFFF" class=""/>
	<path style="fill:#FFFFFF;" d="M217.626,43.63l-96.197,96.197v14.193c0,5.566,2.891,10.448,7.246,13.255L252.32,43.63H217.626z" data-original="#FFFFFF" class=""/>
</g><path style="fill:#FFD652;" d="M172.945,270.537h-35.745c-8.709,0-15.77-7.061-15.77-15.77v-35.563c0-8.709,7.061-15.77,15.77-15.77  h35.745c8.709,0,15.77,7.061,15.77,15.77v35.563C188.715,263.476,181.654,270.537,172.945,270.537z" data-original="#FFD652" class=""/><path style="fill:#FB9D46;" d="M142.456,254.767v-35.563c0-8.709,7.061-15.77,15.77-15.77h-21.027c-8.709,0-15.77,7.061-15.77,15.77  v35.563c0,8.709,7.061,15.77,15.77,15.77h21.027C149.517,270.537,142.456,263.476,142.456,254.767z" data-original="#FB9D46"/><path style="fill:#FFD652;" d="M172.945,371.647h-35.745c-8.709,0-15.77-7.061-15.77-15.77v-35.563c0-8.709,7.061-15.77,15.77-15.77  h35.745c8.709,0,15.77,7.061,15.77,15.77v35.563C188.715,364.586,181.654,371.647,172.945,371.647z" data-original="#FFD652" class=""/><path style="fill:#FB9D46;" d="M142.456,355.877v-35.563c0-8.709,7.061-15.77,15.77-15.77h-21.027c-8.709,0-15.77,7.061-15.77,15.77  v35.563c0,8.709,7.061,15.77,15.77,15.77h21.027C149.517,371.647,142.456,364.586,142.456,355.877z" data-original="#FB9D46"/><path style="fill:#FFD652;" d="M273.873,371.647h-35.745c-8.709,0-15.77-7.061-15.77-15.77v-35.563c0-8.709,7.061-15.77,15.77-15.77  h35.745c8.709,0,15.77,7.061,15.77,15.77v35.563C289.643,364.586,282.582,371.647,273.873,371.647z" data-original="#FFD652" class=""/><path style="fill:#FB9D46;" d="M243.384,355.877v-35.563c0-8.709,7.061-15.77,15.77-15.77h-21.027c-8.709,0-15.77,7.061-15.77,15.77  v35.563c0,8.709,7.061,15.77,15.77,15.77h21.027C250.445,371.647,243.384,364.586,243.384,355.877z" data-original="#FB9D46"/><path style="fill:#FFD652;" d="M172.945,472.393h-35.745c-8.709,0-15.77-7.061-15.77-15.77V421.06c0-8.709,7.061-15.77,15.77-15.77  h35.745c8.709,0,15.77,7.061,15.77,15.77v35.563C188.715,465.332,181.654,472.393,172.945,472.393z" data-original="#FFD652" class=""/><path style="fill:#FB9D46;" d="M142.456,456.623V421.06c0-8.709,7.061-15.77,15.77-15.77h-21.027c-8.709,0-15.77,7.061-15.77,15.77  v35.563c0,8.709,7.061,15.77,15.77,15.77h21.027C149.517,472.393,142.456,465.332,142.456,456.623z" data-original="#FB9D46"/><path style="fill:#FFD652;" d="M273.873,270.537h-35.745c-8.709,0-15.77-7.061-15.77-15.77v-35.563c0-8.709,7.061-15.77,15.77-15.77  h35.745c8.709,0,15.77,7.061,15.77,15.77v35.563C289.643,263.476,282.582,270.537,273.873,270.537z" data-original="#FFD652" class=""/><path style="fill:#FB9D46;" d="M243.384,254.767v-35.563c0-8.709,7.061-15.77,15.77-15.77h-21.027c-8.709,0-15.77,7.061-15.77,15.77  v35.563c0,8.709,7.061,15.77,15.77,15.77h21.027C250.445,270.537,243.384,263.476,243.384,254.767z" data-original="#FB9D46"/><path style="fill:#5AC779;" d="M374.801,371.647h-35.745c-8.709,0-15.77-7.061-15.77-15.77V219.203c0-8.709,7.061-15.77,15.77-15.77  h35.745c8.709,0,15.77,7.061,15.77,15.77v136.674C390.571,364.586,383.51,371.647,374.801,371.647z" data-original="#5AC779"/><path style="fill:#00A085;" d="M344.312,355.877V219.203c0-8.709,7.061-15.77,15.77-15.77h-21.027c-8.709,0-15.77,7.061-15.77,15.77  v136.674c0,8.709,7.061,15.77,15.77,15.77h21.027C351.373,371.647,344.312,364.586,344.312,355.877z" data-original="#00A085" class=""/><path style="fill:#FF7452;" d="M374.801,472.393h-35.745c-8.709,0-15.77-7.061-15.77-15.77V421.06c0-8.709,7.061-15.77,15.77-15.77  h35.745c8.709,0,15.77,7.061,15.77,15.77v35.563C390.571,465.332,383.51,472.393,374.801,472.393z" data-original="#FF7452" class=""/><path style="fill:#E24642;" d="M344.312,456.623V421.06c0-8.709,7.061-15.77,15.77-15.77h-21.027c-8.709,0-15.77,7.061-15.77,15.77  v35.563c0,8.709,7.061,15.77,15.77,15.77h21.027C351.373,472.393,344.312,465.332,344.312,456.623z" data-original="#E24642"/><path style="fill:#FFD652;" d="M273.873,472.393h-35.745c-8.709,0-15.77-7.061-15.77-15.77V421.06c0-8.709,7.061-15.77,15.77-15.77  h35.745c8.709,0,15.77,7.061,15.77,15.77v35.563C289.643,465.332,282.582,472.393,273.873,472.393z" data-original="#FFD652" class=""/><path style="fill:#FB9D46;" d="M243.384,456.623V421.06c0-8.709,7.061-15.77,15.77-15.77h-21.027c-8.709,0-15.77,7.061-15.77,15.77  v35.563c0,8.709,7.061,15.77,15.77,15.77h21.027C250.445,472.393,243.384,465.332,243.384,456.623z" data-original="#FB9D46"/><path d="M405.29,0h-37.848c-4.355,0-7.885,3.529-7.885,7.885s3.53,7.885,7.885,7.885h37.848c13.044,0,23.655,10.612,23.655,23.655  v433.15c0,13.043-10.611,23.655-23.655,23.655H106.71c-13.044,0-23.655-10.612-23.655-23.655v-56.772  c0-4.356-3.53-7.885-7.885-7.885s-7.885,3.529-7.885,7.885v56.772c0,21.74,17.686,39.425,39.425,39.425H405.29  c21.74,0,39.425-17.686,39.425-39.425V39.425C444.715,17.686,427.029,0,405.29,0z" data-original="#000000" class="active-path" style="fill:#07193C" data-old_color="#000000"/><path d="M75.17,383.737c4.355,0,7.885-3.529,7.885-7.885V39.425c0-13.043,10.611-23.655,23.655-23.655h222.883  c4.355,0,7.885-3.529,7.885-7.885S333.949,0,329.593,0H106.71c-21.74,0-39.425,17.686-39.425,39.425v336.427  C67.285,380.208,70.816,383.737,75.17,383.737z" data-original="#000000" class="active-path" style="fill:#07193C" data-old_color="#000000"/><path d="M398.456,59.4c0-13.043-10.611-23.655-23.655-23.655H137.199c-13.044,0-23.655,10.612-23.655,23.655v94.62  c0,13.043,10.611,23.655,23.655,23.655h237.602c13.044,0,23.655-10.612,23.655-23.655V59.4z M129.314,154.021V59.4  c0-4.348,3.537-7.885,7.885-7.885h180.33c-0.012,0.175-0.026,0.348-0.026,0.526v8.936h-6.834c-10.144,0-18.398,8.254-18.398,18.398  v16.821c0,10.144,8.254,18.398,18.398,18.398h6.834v22.078h-21.552c-4.355,0-7.885,3.529-7.885,7.885  c0,4.356,3.53,7.885,7.885,7.885h21.552v8.936c0,0.178,0.015,0.351,0.026,0.526h-180.33  C132.851,161.906,129.314,158.369,129.314,154.021z M317.503,76.747v22.078h-6.834c-1.449,0-2.628-1.179-2.628-2.628V79.376  c0-1.45,1.18-2.628,2.628-2.628H317.503z M333.273,114.595h6.834c1.449,0,2.628,1.179,2.628,2.628v16.821  c0,1.45-1.18,2.628-2.628,2.628h-6.834V114.595z M382.686,154.021c0,4.348-3.537,7.885-7.885,7.885h-41.554  c0.012-0.175,0.026-0.348,0.026-0.526v-8.936h6.834c10.144,0,18.398-8.254,18.398-18.398v-16.821  c0-10.144-8.254-18.398-18.398-18.398h-6.834V76.747h21.552c4.355,0,7.885-3.529,7.885-7.885c0-4.356-3.53-7.885-7.885-7.885  h-21.552v-8.936c0-0.178-0.015-0.351-0.026-0.526h41.554c4.348,0,7.885,3.537,7.885,7.885V154.021z" data-original="#000000" class="active-path" style="fill:#07193C" data-old_color="#000000"/><path d="M196.6,219.203c0-13.043-10.611-23.655-23.655-23.655h-35.745c-13.044,0-23.655,10.612-23.655,23.655v35.562  c0,13.043,10.611,23.655,23.655,23.655h35.745c13.044,0,23.655-10.612,23.655-23.655V219.203z M180.83,254.766  c0,4.348-3.537,7.885-7.885,7.885h-35.745c-4.348,0-7.885-3.537-7.885-7.885v-35.562c0-4.348,3.537-7.885,7.885-7.885h35.745  c4.348,0,7.885,3.537,7.885,7.885V254.766z" data-original="#000000" class="active-path" style="fill:#07193C" data-old_color="#000000"/><path d="M167.688,229.191h-4.731v-4.731c0-4.356-3.53-7.885-7.885-7.885c-4.355,0-7.885,3.529-7.885,7.885v4.731h-4.731  c-4.355,0-7.885,3.529-7.885,7.885c0,4.356,3.53,7.885,7.885,7.885h4.731v4.731c0,4.356,3.53,7.885,7.885,7.885  c4.355,0,7.885-3.529,7.885-7.885v-4.731h4.731c4.355,0,7.885-3.529,7.885-7.885C175.573,232.72,172.043,229.191,167.688,229.191z" data-original="#000000" class="active-path" style="fill:#07193C" data-old_color="#000000"/><path d="M196.6,320.314c0-13.043-10.611-23.655-23.655-23.655h-35.745c-13.044,0-23.655,10.612-23.655,23.655v35.562  c0,13.043,10.611,23.655,23.655,23.655h35.745c13.044,0,23.655-10.612,23.655-23.655V320.314z M180.83,355.877  c0,4.348-3.537,7.885-7.885,7.885h-35.745c-4.348,0-7.885-3.537-7.885-7.885v-35.562c0-4.348,3.537-7.885,7.885-7.885h35.745  c4.348,0,7.885,3.537,7.885,7.885V355.877z" data-original="#000000" class="active-path" style="fill:#07193C" data-old_color="#000000"/><path d="M169.569,323.507c-3.079-3.078-8.072-3.078-11.15,0l-3.345,3.345l-3.345-3.345c-3.079-3.078-8.072-3.078-11.15,0  c-3.079,3.08-3.079,8.072,0,11.151l3.345,3.345l-3.345,3.345c-3.079,3.08-3.079,8.072,0,11.151c1.539,1.539,3.558,2.309,5.575,2.309  s4.036-0.77,5.575-2.309l3.345-3.345l3.345,3.345c1.539,1.539,3.558,2.309,5.575,2.309s4.036-0.77,5.575-2.309  c3.079-3.08,3.079-8.072,0-11.151l-3.345-3.345l3.345-3.345C172.648,331.579,172.648,326.588,169.569,323.507z" data-original="#000000" class="active-path" style="fill:#07193C" data-old_color="#000000"/><path d="M297.528,320.314c0-13.043-10.611-23.655-23.655-23.655h-35.745c-13.044,0-23.655,10.612-23.655,23.655v35.562  c0,13.043,10.611,23.655,23.655,23.655h35.745c13.044,0,23.655-10.612,23.655-23.655V320.314z M281.758,355.877  c0,4.348-3.537,7.885-7.885,7.885h-35.745c-4.348,0-7.885-3.537-7.885-7.885v-35.562c0-4.348,3.537-7.885,7.885-7.885h35.745  c4.348,0,7.885,3.537,7.885,7.885V355.877z" data-original="#000000" class="active-path" style="fill:#07193C" data-old_color="#000000"/><path d="M259.855,323.507l-17.842,17.842c-3.079,3.08-3.079,8.072,0,11.151c1.539,1.539,3.558,2.309,5.575,2.309  s4.036-0.77,5.575-2.309l17.842-17.842c3.079-3.08,3.079-8.072,0-11.151C267.927,320.429,262.935,320.429,259.855,323.507z" data-original="#000000" class="active-path" style="fill:#07193C" data-old_color="#000000"/><path d="M172.945,397.405h-35.745c-13.044,0-23.655,10.612-23.655,23.655v35.562c0,13.043,10.611,23.655,23.655,23.655h35.745  c13.044,0,23.655-10.612,23.655-23.655V421.06C196.6,408.017,185.988,397.405,172.945,397.405z M180.83,456.622  c0,4.348-3.537,7.885-7.885,7.885h-35.745c-4.348,0-7.885-3.537-7.885-7.885V421.06c0-4.348,3.537-7.885,7.885-7.885h35.745  c4.348,0,7.885,3.537,7.885,7.885V456.622z" data-original="#000000" class="active-path" style="fill:#07193C" data-old_color="#000000"/><path d="M169.027,425.487c-3.079-3.078-8.072-3.078-11.15,0l-17.842,17.842c-3.079,3.08-3.079,8.072,0,11.151  c1.539,1.539,3.558,2.309,5.575,2.309s4.036-0.77,5.575-2.309l17.842-17.842C172.107,433.559,172.107,428.567,169.027,425.487z" data-original="#000000" class="active-path" style="fill:#07193C" data-old_color="#000000"/><path d="M146.98,432.944l2.103-2.103c3.079-3.08,3.079-8.072,0-11.151c-3.079-3.078-8.072-3.078-11.15,0l-2.103,2.103  c-3.079,3.08-3.079,8.072,0,11.152c1.539,1.539,3.558,2.309,5.575,2.309S145.441,434.483,146.98,432.944z" data-original="#000000" class="active-path" style="fill:#07193C" data-old_color="#000000"/><path d="M163.164,444.921l-2.103,2.103c-3.079,3.08-3.079,8.072,0,11.151c1.539,1.539,3.558,2.309,5.575,2.309  s4.036-0.77,5.575-2.309l2.103-2.103c3.079-3.08,3.079-8.072,0-11.151C171.236,441.843,166.242,441.843,163.164,444.921z" data-original="#000000" class="active-path" style="fill:#07193C" data-old_color="#000000"/><path d="M297.528,219.203c0-13.043-10.611-23.655-23.655-23.655h-35.745c-13.044,0-23.655,10.612-23.655,23.655v35.562  c0,13.043,10.611,23.655,23.655,23.655h35.745c13.044,0,23.655-10.612,23.655-23.655V219.203z M281.758,254.766  c0,4.348-3.537,7.885-7.885,7.885h-35.745c-4.348,0-7.885-3.537-7.885-7.885v-35.562c0-4.348,3.537-7.885,7.885-7.885h35.745  c4.348,0,7.885,3.537,7.885,7.885V254.766z" data-original="#000000" class="active-path" style="fill:#07193C" data-old_color="#000000"/><path d="M268.616,230.242h-25.232c-4.355,0-7.885,3.529-7.885,7.885s3.53,7.885,7.885,7.885h25.232c4.355,0,7.885-3.529,7.885-7.885  S272.971,230.242,268.616,230.242z" data-original="#000000" class="active-path" style="fill:#07193C" data-old_color="#000000"/><path d="M398.456,219.203c0-13.043-10.611-23.655-23.655-23.655h-35.745c-13.044,0-23.655,10.612-23.655,23.655v136.674  c0,13.043,10.611,23.655,23.655,23.655h35.745c13.044,0,23.655-10.612,23.655-23.655V219.203z M382.686,355.877  c0,4.348-3.537,7.885-7.885,7.885h-35.745c-4.348,0-7.885-3.537-7.885-7.885V219.203c0-4.348,3.537-7.885,7.885-7.885h35.745  c4.348,0,7.885,3.537,7.885,7.885V355.877z" data-original="#000000" class="active-path" style="fill:#07193C" data-old_color="#000000"/><path d="M369.544,262.834h-25.232c-4.355,0-7.885,3.529-7.885,7.885s3.53,7.885,7.885,7.885h25.232c4.355,0,7.885-3.529,7.885-7.885  S373.899,262.834,369.544,262.834z" data-original="#000000" class="active-path" style="fill:#07193C" data-old_color="#000000"/><path d="M369.544,288.066h-25.232c-4.355,0-7.885,3.529-7.885,7.885c0,4.356,3.53,7.885,7.885,7.885h25.232  c4.355,0,7.885-3.529,7.885-7.885C377.429,291.595,373.899,288.066,369.544,288.066z" data-original="#000000" class="active-path" style="fill:#07193C" data-old_color="#000000"/><path d="M374.801,397.405h-35.745c-13.044,0-23.655,10.612-23.655,23.655v35.562c0,13.043,10.611,23.655,23.655,23.655h35.745  c13.044,0,23.655-10.612,23.655-23.655V421.06C398.456,408.017,387.845,397.405,374.801,397.405z M382.686,456.622  c0,4.348-3.537,7.885-7.885,7.885h-35.745c-4.348,0-7.885-3.537-7.885-7.885V421.06c0-4.348,3.537-7.885,7.885-7.885h35.745  c4.348,0,7.885,3.537,7.885,7.885V456.622z" data-original="#000000" class="active-path" style="fill:#07193C" data-old_color="#000000"/><path d="M357.979,434.201c1.5,0,2.922,0.572,4.002,1.61c3.142,3.014,8.134,2.913,11.148-0.229c3.016-3.141,2.913-8.132-0.228-11.148  c-4.033-3.871-9.333-6.002-14.924-6.002c-11.884,0-21.552,9.668-21.552,21.552s9.668,21.552,21.552,21.552  c5.589,0,10.889-2.131,14.922-6c3.142-3.015,3.245-8.006,0.231-11.148c-3.015-3.142-8.007-3.245-11.148-0.231  c-1.082,1.038-2.503,1.61-4.003,1.61c-3.189,0-5.782-2.594-5.782-5.782S354.791,434.201,357.979,434.201z" data-original="#000000" class="active-path" style="fill:#07193C" data-old_color="#000000"/><path d="M273.873,397.405h-35.745c-13.044,0-23.655,10.612-23.655,23.655v35.562c0,13.043,10.611,23.655,23.655,23.655h35.745  c13.044,0,23.655-10.612,23.655-23.655V421.06C297.528,408.017,286.917,397.405,273.873,397.405z M281.758,456.622  c0,4.348-3.537,7.885-7.885,7.885h-35.745c-4.348,0-7.885-3.537-7.885-7.885V421.06c0-4.348,3.537-7.885,7.885-7.885h35.745  c4.348,0,7.885,3.537,7.885,7.885V456.622z" data-original="#000000" class="active-path" style="fill:#07193C" data-old_color="#000000"/><path d="M256,428.945c-4.355,0-7.885,3.529-7.885,7.885v2.103c0,4.356,3.53,7.885,7.885,7.885c4.355,0,7.885-3.529,7.885-7.885  v-2.103C263.885,432.474,260.355,428.945,256,428.945z" data-original="#000000" class="active-path" style="fill:#07193C" data-old_color="#000000"/></g> </svg>
